# STW-T01 StingWasp Deck 1 — canonical 10-room architectural model
# 1 OBJ unit = 1 metre
# Exterior shell authority: 31.0m L x 10.5m B x 8.2m H
# Deck geometry deliberately inset inside hull shell
# EXACT CANONICAL DECK 1 SPACES = 10
mtllib STW-T01_Deck1_CANONICAL_10ROOM_1to1.mtl
v -14.100000 -0.160000 0.000000
v -13.200000 -0.160000 -1.300000
v -11.450000 -0.160000 -2.550000
v -8.600000 -0.160000 -3.500000
v -4.200000 -0.160000 -4.050000
v 1.200000 -0.160000 -4.250000
v 6.600000 -0.160000 -4.150000
v 10.650000 -0.160000 -3.750000
v 13.250000 -0.160000 -2.900000
v 14.100000 -0.160000 -1.350000
v 14.100000 -0.160000 0.000000
v 14.100000 -0.160000 1.350000
v 13.250000 -0.160000 2.900000
v 10.650000 -0.160000 3.750000
v 6.600000 -0.160000 4.150000
v 1.200000 -0.160000 4.250000
v -4.200000 -0.160000 4.050000
v -8.600000 -0.160000 3.500000
v -11.450000 -0.160000 2.550000
v -13.200000 -0.160000 1.300000
v -14.100000 0.000000 0.000000
v -13.200000 0.000000 -1.300000
v -11.450000 0.000000 -2.550000
v -8.600000 0.000000 -3.500000
v -4.200000 0.000000 -4.050000
v 1.200000 0.000000 -4.250000
v 6.600000 0.000000 -4.150000
v 10.650000 0.000000 -3.750000
v 13.250000 0.000000 -2.900000
v 14.100000 0.000000 -1.350000
v 14.100000 0.000000 0.000000
v 14.100000 0.000000 1.350000
v 13.250000 0.000000 2.900000
v 10.650000 0.000000 3.750000
v 6.600000 0.000000 4.150000
v 1.200000 0.000000 4.250000
v -4.200000 0.000000 4.050000
v -8.600000 0.000000 3.500000
v -11.450000 0.000000 2.550000
v -13.200000 0.000000 1.300000
v -14.173997 0.000000 -0.051229
v -13.273997 0.000000 -1.351229
v -13.126003 0.000000 -1.248771
v -14.026003 0.000000 0.051229
v -14.173997 1.180000 -0.051229
v -13.273997 1.180000 -1.351229
v -13.126003 1.180000 -1.248771
v -14.026003 1.180000 0.051229
v -13.252311 0.000000 -1.373236
v -11.502311 0.000000 -2.623236
v -11.397689 0.000000 -2.476764
v -13.147689 0.000000 -1.226764
v -13.252311 1.180000 -1.373236
v -11.502311 1.180000 -2.623236
v -11.397689 1.180000 -2.476764
v -13.147689 1.180000 -1.226764
v -11.478460 0.000000 -2.635381
v -8.628460 0.000000 -3.585381
v -8.571540 0.000000 -3.414619
v -11.421540 0.000000 -2.464619
v -11.478460 1.180000 -2.635381
v -8.628460 1.180000 -3.585381
v -8.571540 1.180000 -3.414619
v -11.421540 1.180000 -2.464619
v -8.611163 0.000000 -3.589305
v -4.211163 0.000000 -4.139305
v -4.188837 0.000000 -3.960695
v -8.588837 0.000000 -3.410695
v -8.611163 1.180000 -3.589305
v -4.211163 1.180000 -4.139305
v -4.188837 1.180000 -3.960695
v -8.588837 1.180000 -3.410695
v -4.203331 0.000000 -4.139938
v 1.196669 0.000000 -4.339938
v 1.203331 0.000000 -4.160062
v -4.196669 0.000000 -3.960062
v -4.203331 1.180000 -4.139938
v 1.196669 1.180000 -4.339938
v 1.203331 1.180000 -4.160062
v -4.196669 1.180000 -3.960062
v 1.201666 0.000000 -4.339985
v 6.601666 0.000000 -4.239985
v 6.598334 0.000000 -4.060015
v 1.198334 0.000000 -4.160015
v 1.201666 1.180000 -4.339985
v 6.601666 1.180000 -4.239985
v 6.598334 1.180000 -4.060015
v 1.198334 1.180000 -4.160015
v 6.608846 0.000000 -4.239564
v 10.658846 0.000000 -3.839564
v 10.641154 0.000000 -3.660436
v 6.591154 0.000000 -4.060436
v 6.608846 1.180000 -4.239564
v 10.658846 1.180000 -3.839564
v 10.641154 1.180000 -3.660436
v 6.591154 1.180000 -4.060436
v 10.677966 0.000000 -3.835545
v 13.277966 0.000000 -2.985545
v 13.222034 0.000000 -2.814455
v 10.622034 0.000000 -3.664455
v 10.677966 1.180000 -3.835545
v 13.277966 1.180000 -2.985545
v 13.222034 1.180000 -2.814455
v 10.622034 1.180000 -3.664455
v 13.328913 0.000000 -2.943275
v 14.178913 0.000000 -1.393275
v 14.021087 0.000000 -1.306725
v 13.171087 0.000000 -2.856725
v 13.328913 1.180000 -2.943275
v 14.178913 1.180000 -1.393275
v 14.021087 1.180000 -1.306725
v 13.171087 1.180000 -2.856725
v 14.190000 0.000000 -1.350000
v 14.190000 0.000000 0.000000
v 14.010000 0.000000 0.000000
v 14.010000 0.000000 -1.350000
v 14.190000 1.180000 -1.350000
v 14.190000 1.180000 0.000000
v 14.010000 1.180000 0.000000
v 14.010000 1.180000 -1.350000
v 14.190000 0.000000 1.350000
v 14.010000 0.000000 1.350000
v 14.190000 1.180000 1.350000
v 14.010000 1.180000 1.350000
v 14.178913 0.000000 1.393275
v 13.328913 0.000000 2.943275
v 13.171087 0.000000 2.856725
v 14.021087 0.000000 1.306725
v 14.178913 1.180000 1.393275
v 13.328913 1.180000 2.943275
v 13.171087 1.180000 2.856725
v 14.021087 1.180000 1.306725
v 13.277966 0.000000 2.985545
v 10.677966 0.000000 3.835545
v 10.622034 0.000000 3.664455
v 13.222034 0.000000 2.814455
v 13.277966 1.180000 2.985545
v 10.677966 1.180000 3.835545
v 10.622034 1.180000 3.664455
v 13.222034 1.180000 2.814455
v 10.658846 0.000000 3.839564
v 6.608846 0.000000 4.239564
v 6.591154 0.000000 4.060436
v 10.641154 0.000000 3.660436
v 10.658846 1.180000 3.839564
v 6.608846 1.180000 4.239564
v 6.591154 1.180000 4.060436
v 10.641154 1.180000 3.660436
v 6.601666 0.000000 4.239985
v 1.201666 0.000000 4.339985
v 1.198334 0.000000 4.160015
v 6.598334 0.000000 4.060015
v 6.601666 1.180000 4.239985
v 1.201666 1.180000 4.339985
v 1.198334 1.180000 4.160015
v 6.598334 1.180000 4.060015
v 1.196669 0.000000 4.339938
v -4.203331 0.000000 4.139938
v -4.196669 0.000000 3.960062
v 1.203331 0.000000 4.160062
v 1.196669 1.180000 4.339938
v -4.203331 1.180000 4.139938
v -4.196669 1.180000 3.960062
v 1.203331 1.180000 4.160062
v -4.211163 0.000000 4.139305
v -8.611163 0.000000 3.589305
v -8.588837 0.000000 3.410695
v -4.188837 0.000000 3.960695
v -4.211163 1.180000 4.139305
v -8.611163 1.180000 3.589305
v -8.588837 1.180000 3.410695
v -4.188837 1.180000 3.960695
v -8.628460 0.000000 3.585381
v -11.478460 0.000000 2.635381
v -11.421540 0.000000 2.464619
v -8.571540 0.000000 3.414619
v -8.628460 1.180000 3.585381
v -11.478460 1.180000 2.635381
v -11.421540 1.180000 2.464619
v -8.571540 1.180000 3.414619
v -11.502311 0.000000 2.623236
v -13.252311 0.000000 1.373236
v -13.147689 0.000000 1.226764
v -11.397689 0.000000 2.476764
v -11.502311 1.180000 2.623236
v -13.252311 1.180000 1.373236
v -13.147689 1.180000 1.226764
v -11.397689 1.180000 2.476764
v -13.273997 0.000000 1.351229
v -14.173997 0.000000 0.051229
v -14.026003 0.000000 -0.051229
v -13.126003 0.000000 1.248771
v -13.273997 1.180000 1.351229
v -14.173997 1.180000 0.051229
v -14.026003 1.180000 -0.051229
v -13.126003 1.180000 1.248771
v -13.600000 0.000000 -1.950000
v -10.550000 0.000000 -2.650000
v -8.950000 0.000000 -2.200000
v -8.950000 0.000000 2.200000
v -10.550000 0.000000 2.650000
v -13.600000 0.000000 1.950000
v -13.600000 0.040000 -1.950000
v -10.550000 0.040000 -2.650000
v -8.950000 0.040000 -2.200000
v -8.950000 0.040000 2.200000
v -10.550000 0.040000 2.650000
v -13.600000 0.040000 1.950000
v -13.615658 0.000000 -2.018226
v -10.565658 0.000000 -2.718226
v -10.534342 0.000000 -2.581774
v -13.584342 0.000000 -1.881774
v -13.615658 1.100000 -2.018226
v -10.565658 1.100000 -2.718226
v -10.534342 1.100000 -2.581774
v -13.584342 1.100000 -1.881774
v -10.531048 0.000000 -2.717386
v -8.931048 0.000000 -2.267386
v -8.968952 0.000000 -2.132614
v -10.568952 0.000000 -2.582614
v -10.531048 1.100000 -2.717386
v -8.931048 1.100000 -2.267386
v -8.968952 1.100000 -2.132614
v -10.568952 1.100000 -2.582614
v -8.880000 0.000000 -2.200000
v -8.880000 0.000000 2.200000
v -9.020000 0.000000 2.200000
v -9.020000 0.000000 -2.200000
v -8.880000 1.100000 -2.200000
v -8.880000 1.100000 2.200000
v -9.020000 1.100000 2.200000
v -9.020000 1.100000 -2.200000
v -8.931048 0.000000 2.267386
v -10.531048 0.000000 2.717386
v -10.568952 0.000000 2.582614
v -8.968952 0.000000 2.132614
v -8.931048 1.100000 2.267386
v -10.531048 1.100000 2.717386
v -10.568952 1.100000 2.582614
v -8.968952 1.100000 2.132614
v -10.565658 0.000000 2.718226
v -13.615658 0.000000 2.018226
v -13.584342 0.000000 1.881774
v -10.534342 0.000000 2.581774
v -10.565658 1.100000 2.718226
v -13.615658 1.100000 2.018226
v -13.584342 1.100000 1.881774
v -10.534342 1.100000 2.581774
v -13.670000 0.000000 1.950000
v -13.670000 0.000000 -1.950000
v -13.530000 0.000000 -1.950000
v -13.530000 0.000000 1.950000
v -13.670000 1.100000 1.950000
v -13.670000 1.100000 -1.950000
v -13.530000 1.100000 -1.950000
v -13.530000 1.100000 1.950000
v -12.790000 0.000000 -1.050000
v -11.910000 0.000000 -1.050000
v -11.910000 0.680000 -1.050000
v -12.790000 0.680000 -1.050000
v -12.790000 0.000000 1.050000
v -11.910000 0.000000 1.050000
v -11.910000 0.680000 1.050000
v -12.790000 0.680000 1.050000
v -11.360000 0.000000 -1.330000
v -10.800000 0.000000 -1.330000
v -10.800000 0.620000 -1.330000
v -11.360000 0.620000 -1.330000
v -11.360000 0.000000 -0.770000
v -10.800000 0.000000 -0.770000
v -10.800000 0.620000 -0.770000
v -11.360000 0.620000 -0.770000
v -10.915000 0.310000 -1.330000
v -10.765000 0.310000 -1.330000
v -10.765000 1.030000 -1.330000
v -10.915000 1.030000 -1.330000
v -10.915000 0.310000 -0.770000
v -10.765000 0.310000 -0.770000
v -10.765000 1.030000 -0.770000
v -10.915000 1.030000 -0.770000
v -11.360000 0.000000 -0.280000
v -10.800000 0.000000 -0.280000
v -10.800000 0.620000 -0.280000
v -11.360000 0.620000 -0.280000
v -11.360000 0.000000 0.280000
v -10.800000 0.000000 0.280000
v -10.800000 0.620000 0.280000
v -11.360000 0.620000 0.280000
v -10.915000 0.310000 -0.280000
v -10.765000 0.310000 -0.280000
v -10.765000 1.030000 -0.280000
v -10.915000 1.030000 -0.280000
v -10.915000 0.310000 0.280000
v -10.765000 0.310000 0.280000
v -10.765000 1.030000 0.280000
v -10.915000 1.030000 0.280000
v -11.360000 0.000000 0.770000
v -10.800000 0.000000 0.770000
v -10.800000 0.620000 0.770000
v -11.360000 0.620000 0.770000
v -11.360000 0.000000 1.330000
v -10.800000 0.000000 1.330000
v -10.800000 0.620000 1.330000
v -11.360000 0.620000 1.330000
v -10.915000 0.310000 0.770000
v -10.765000 0.310000 0.770000
v -10.765000 1.030000 0.770000
v -10.915000 1.030000 0.770000
v -10.915000 0.310000 1.330000
v -10.765000 0.310000 1.330000
v -10.765000 1.030000 1.330000
v -10.915000 1.030000 1.330000
v -7.010000 0.000000 -3.250000
v -7.010000 0.000000 3.250000
v -7.190000 0.000000 3.250000
v -7.190000 0.000000 -3.250000
v -7.010000 1.180000 -3.250000
v -7.010000 1.180000 3.250000
v -7.190000 1.180000 3.250000
v -7.190000 1.180000 -3.250000
v -8.989488 0.000000 -2.269575
v -7.139488 0.000000 -3.319575
v -7.060512 0.000000 -3.180425
v -8.910512 0.000000 -2.130425
v -8.989488 1.180000 -2.269575
v -7.139488 1.180000 -3.319575
v -7.060512 1.180000 -3.180425
v -8.910512 1.180000 -2.130425
v -8.910512 0.000000 2.130425
v -7.060512 0.000000 3.180425
v -7.139488 0.000000 3.319575
v -8.989488 0.000000 2.269575
v -8.910512 1.180000 2.130425
v -7.060512 1.180000 3.180425
v -7.139488 1.180000 3.319575
v -8.989488 1.180000 2.269575
v -8.070000 0.000000 -2.490000
v -7.490000 0.000000 -2.490000
v -7.490000 1.120000 -2.490000
v -8.070000 1.120000 -2.490000
v -8.070000 0.000000 -1.810000
v -7.490000 0.000000 -1.810000
v -7.490000 1.120000 -1.810000
v -8.070000 1.120000 -1.810000
v -8.070000 0.000000 -1.490000
v -7.490000 0.000000 -1.490000
v -7.490000 1.120000 -1.490000
v -8.070000 1.120000 -1.490000
v -8.070000 0.000000 -0.810000
v -7.490000 0.000000 -0.810000
v -7.490000 1.120000 -0.810000
v -8.070000 1.120000 -0.810000
v -8.070000 0.000000 0.810000
v -7.490000 0.000000 0.810000
v -7.490000 1.120000 0.810000
v -8.070000 1.120000 0.810000
v -8.070000 0.000000 1.490000
v -7.490000 0.000000 1.490000
v -7.490000 1.120000 1.490000
v -8.070000 1.120000 1.490000
v -8.070000 0.000000 1.810000
v -7.490000 0.000000 1.810000
v -7.490000 1.120000 1.810000
v -8.070000 1.120000 1.810000
v -8.070000 0.000000 2.490000
v -7.490000 0.000000 2.490000
v -7.490000 1.120000 2.490000
v -8.070000 1.120000 2.490000
v -8.500000 0.000000 -0.700000
v -7.600000 0.000000 -0.700000
v -7.600000 0.760000 -0.700000
v -8.500000 0.760000 -0.700000
v -8.500000 0.000000 0.700000
v -7.600000 0.000000 0.700000
v -7.600000 0.760000 0.700000
v -8.500000 0.760000 0.700000
v -7.100000 0.000000 -0.690000
v 10.200000 0.000000 -0.690000
v 10.200000 0.050000 -0.690000
v -7.100000 0.050000 -0.690000
v -7.100000 0.000000 0.690000
v 10.200000 0.000000 0.690000
v 10.200000 0.050000 0.690000
v -7.100000 0.050000 0.690000
v -6.900000 0.000000 3.470000
v 7.900000 0.000000 3.470000
v 7.900000 0.000000 3.630000
v -6.900000 0.000000 3.630000
v -6.900000 1.180000 3.470000
v 7.900000 1.180000 3.470000
v 7.900000 1.180000 3.630000
v -6.900000 1.180000 3.630000
v -6.900000 0.000000 -3.630000
v 7.900000 0.000000 -3.630000
v 7.900000 0.000000 -3.470000
v -6.900000 0.000000 -3.470000
v -6.900000 1.180000 -3.630000
v 7.900000 1.180000 -3.630000
v 7.900000 1.180000 -3.470000
v -6.900000 1.180000 -3.470000
v -6.820000 0.000000 0.720000
v -6.820000 0.000000 3.550000
v -6.980000 0.000000 3.550000
v -6.980000 0.000000 0.720000
v -6.820000 1.180000 0.720000
v -6.820000 1.180000 3.550000
v -6.980000 1.180000 3.550000
v -6.980000 1.180000 0.720000
v -6.980000 0.000000 -0.720000
v -6.980000 0.000000 -3.550000
v -6.820000 0.000000 -3.550000
v -6.820000 0.000000 -0.720000
v -6.980000 1.180000 -0.720000
v -6.980000 1.180000 -3.550000
v -6.820000 1.180000 -3.550000
v -6.820000 1.180000 -0.720000
v -3.320000 0.000000 0.720000
v -3.320000 0.000000 3.550000
v -3.480000 0.000000 3.550000
v -3.480000 0.000000 0.720000
v -3.320000 1.180000 0.720000
v -3.320000 1.180000 3.550000
v -3.480000 1.180000 3.550000
v -3.480000 1.180000 0.720000
v -3.480000 0.000000 -0.720000
v -3.480000 0.000000 -3.550000
v -3.320000 0.000000 -3.550000
v -3.320000 0.000000 -0.720000
v -3.480000 1.180000 -0.720000
v -3.480000 1.180000 -3.550000
v -3.320000 1.180000 -3.550000
v -3.320000 1.180000 -0.720000
v 0.080000 0.000000 0.720000
v 0.080000 0.000000 3.550000
v -0.080000 0.000000 3.550000
v -0.080000 0.000000 0.720000
v 0.080000 1.180000 0.720000
v 0.080000 1.180000 3.550000
v -0.080000 1.180000 3.550000
v -0.080000 1.180000 0.720000
v -0.080000 0.000000 -0.720000
v -0.080000 0.000000 -3.550000
v 0.080000 0.000000 -3.550000
v 0.080000 0.000000 -0.720000
v -0.080000 1.180000 -0.720000
v -0.080000 1.180000 -3.550000
v 0.080000 1.180000 -3.550000
v 0.080000 1.180000 -0.720000
v 3.780000 0.000000 0.720000
v 3.780000 0.000000 3.550000
v 3.620000 0.000000 3.550000
v 3.620000 0.000000 0.720000
v 3.780000 1.180000 0.720000
v 3.780000 1.180000 3.550000
v 3.620000 1.180000 3.550000
v 3.620000 1.180000 0.720000
v 3.620000 0.000000 -0.720000
v 3.620000 0.000000 -3.550000
v 3.780000 0.000000 -3.550000
v 3.780000 0.000000 -0.720000
v 3.620000 1.180000 -0.720000
v 3.620000 1.180000 -3.550000
v 3.780000 1.180000 -3.550000
v 3.780000 1.180000 -0.720000
v 7.980000 0.000000 0.720000
v 7.980000 0.000000 3.550000
v 7.820000 0.000000 3.550000
v 7.820000 0.000000 0.720000
v 7.980000 1.180000 0.720000
v 7.980000 1.180000 3.550000
v 7.820000 1.180000 3.550000
v 7.820000 1.180000 0.720000
v 7.820000 0.000000 -0.720000
v 7.820000 0.000000 -3.550000
v 7.980000 0.000000 -3.550000
v 7.980000 0.000000 -0.720000
v 7.820000 1.180000 -0.720000
v 7.820000 1.180000 -3.550000
v 7.980000 1.180000 -3.550000
v 7.980000 1.180000 -0.720000
v -6.900000 0.000000 0.640000
v -5.540000 0.000000 0.640000
v -5.540000 0.000000 0.800000
v -6.900000 0.000000 0.800000
v -6.900000 1.180000 0.640000
v -5.540000 1.180000 0.640000
v -5.540000 1.180000 0.800000
v -6.900000 1.180000 0.800000
v -4.760000 0.000000 0.640000
v -3.400000 0.000000 0.640000
v -3.400000 0.000000 0.800000
v -4.760000 0.000000 0.800000
v -4.760000 1.180000 0.640000
v -3.400000 1.180000 0.640000
v -3.400000 1.180000 0.800000
v -4.760000 1.180000 0.800000
v -6.900000 0.000000 -0.800000
v -5.540000 0.000000 -0.800000
v -5.540000 0.000000 -0.640000
v -6.900000 0.000000 -0.640000
v -6.900000 1.180000 -0.800000
v -5.540000 1.180000 -0.800000
v -5.540000 1.180000 -0.640000
v -6.900000 1.180000 -0.640000
v -4.760000 0.000000 -0.800000
v -3.400000 0.000000 -0.800000
v -3.400000 0.000000 -0.640000
v -4.760000 0.000000 -0.640000
v -4.760000 1.180000 -0.800000
v -3.400000 1.180000 -0.800000
v -3.400000 1.180000 -0.640000
v -4.760000 1.180000 -0.640000
v -2.090000 0.000000 0.640000
v -2.090000 0.000000 0.800000
v -2.090000 1.180000 0.640000
v -2.090000 1.180000 0.800000
v -1.310000 0.000000 0.640000
v 0.000000 0.000000 0.640000
v 0.000000 0.000000 0.800000
v -1.310000 0.000000 0.800000
v -1.310000 1.180000 0.640000
v 0.000000 1.180000 0.640000
v 0.000000 1.180000 0.800000
v -1.310000 1.180000 0.800000
v -2.090000 0.000000 -0.800000
v -2.090000 0.000000 -0.640000
v -2.090000 1.180000 -0.800000
v -2.090000 1.180000 -0.640000
v -1.310000 0.000000 -0.800000
v 0.000000 0.000000 -0.800000
v 0.000000 0.000000 -0.640000
v -1.310000 0.000000 -0.640000
v -1.310000 1.180000 -0.800000
v 0.000000 1.180000 -0.800000
v 0.000000 1.180000 -0.640000
v -1.310000 1.180000 -0.640000
v 1.460000 0.000000 0.640000
v 1.460000 0.000000 0.800000
v 1.460000 1.180000 0.640000
v 1.460000 1.180000 0.800000
v 2.240000 0.000000 0.640000
v 3.700000 0.000000 0.640000
v 3.700000 0.000000 0.800000
v 2.240000 0.000000 0.800000
v 2.240000 1.180000 0.640000
v 3.700000 1.180000 0.640000
v 3.700000 1.180000 0.800000
v 2.240000 1.180000 0.800000
v 1.460000 0.000000 -0.800000
v 1.460000 0.000000 -0.640000
v 1.460000 1.180000 -0.800000
v 1.460000 1.180000 -0.640000
v 2.240000 0.000000 -0.800000
v 3.700000 0.000000 -0.800000
v 3.700000 0.000000 -0.640000
v 2.240000 0.000000 -0.640000
v 2.240000 1.180000 -0.800000
v 3.700000 1.180000 -0.800000
v 3.700000 1.180000 -0.640000
v 2.240000 1.180000 -0.640000
v 5.410000 0.000000 0.640000
v 5.410000 0.000000 0.800000
v 5.410000 1.180000 0.640000
v 5.410000 1.180000 0.800000
v 6.190000 0.000000 0.640000
v 7.900000 0.000000 0.640000
v 7.900000 0.000000 0.800000
v 6.190000 0.000000 0.800000
v 6.190000 1.180000 0.640000
v 7.900000 1.180000 0.640000
v 7.900000 1.180000 0.800000
v 6.190000 1.180000 0.800000
v 5.410000 0.000000 -0.800000
v 5.410000 0.000000 -0.640000
v 5.410000 1.180000 -0.800000
v 5.410000 1.180000 -0.640000
v 6.190000 0.000000 -0.800000
v 7.900000 0.000000 -0.800000
v 7.900000 0.000000 -0.640000
v 6.190000 0.000000 -0.640000
v 6.190000 1.180000 -0.800000
v 7.900000 1.180000 -0.800000
v 7.900000 1.180000 -0.640000
v 6.190000 1.180000 -0.640000
v -6.525000 0.020000 2.040000
v -4.975000 0.020000 2.040000
v -4.975000 0.440000 2.040000
v -6.525000 0.440000 2.040000
v -6.525000 0.020000 2.720000
v -4.975000 0.020000 2.720000
v -4.975000 0.440000 2.720000
v -6.525000 0.440000 2.720000
v -4.925000 0.020000 2.750000
v -4.175000 0.020000 2.750000
v -4.175000 0.720000 2.750000
v -4.925000 0.720000 2.750000
v -4.925000 0.020000 3.250000
v -4.175000 0.020000 3.250000
v -4.175000 0.720000 3.250000
v -4.925000 0.720000 3.250000
v -4.690000 0.000000 1.340000
v -4.210000 0.000000 1.340000
v -4.210000 1.020000 1.340000
v -4.690000 1.020000 1.340000
v -4.690000 0.000000 1.760000
v -4.210000 0.000000 1.760000
v -4.210000 1.020000 1.760000
v -4.690000 1.020000 1.760000
v -3.125000 0.020000 2.210000
v -1.975000 0.020000 2.210000
v -1.975000 0.440000 2.210000
v -3.125000 0.440000 2.210000
v -3.125000 0.020000 2.830000
v -1.975000 0.020000 2.830000
v -1.975000 0.440000 2.830000
v -3.125000 0.440000 2.830000
v -3.125000 0.520000 2.210000
v -1.975000 0.520000 2.210000
v -1.975000 0.880000 2.210000
v -3.125000 0.880000 2.210000
v -3.125000 0.520000 2.830000
v -1.975000 0.520000 2.830000
v -1.975000 0.880000 2.830000
v -3.125000 0.880000 2.830000
v -1.625000 0.020000 2.210000
v -0.475000 0.020000 2.210000
v -0.475000 0.440000 2.210000
v -1.625000 0.440000 2.210000
v -1.625000 0.020000 2.830000
v -0.475000 0.020000 2.830000
v -0.475000 0.440000 2.830000
v -1.625000 0.440000 2.830000
v -1.625000 0.520000 2.210000
v -0.475000 0.520000 2.210000
v -0.475000 0.880000 2.210000
v -1.625000 0.880000 2.210000
v -1.625000 0.520000 2.830000
v -0.475000 0.520000 2.830000
v -0.475000 0.880000 2.830000
v -1.625000 0.880000 2.830000
v -2.425000 0.000000 1.290000
v -1.075000 0.000000 1.290000
v -1.075000 1.000000 1.290000
v -2.425000 1.000000 1.290000
v -2.425000 0.000000 1.670000
v -1.075000 0.000000 1.670000
v -1.075000 1.000000 1.670000
v -2.425000 1.000000 1.670000
v -0.075000 0.020000 2.770000
v 2.275000 0.020000 2.770000
v 2.275000 0.840000 2.770000
v -0.075000 0.840000 2.770000
v -0.075000 0.020000 3.270000
v 2.275000 0.020000 3.270000
v 2.275000 0.840000 3.270000
v -0.075000 0.840000 3.270000
v 2.100000 0.000000 1.340000
v 2.800000 0.000000 1.340000
v 2.800000 1.040000 1.340000
v 2.100000 1.040000 1.340000
v 2.100000 0.000000 1.760000
v 2.800000 0.000000 1.760000
v 2.800000 1.040000 1.760000
v 2.100000 1.040000 1.760000
v -0.175000 0.000000 1.340000
v 0.475000 0.000000 1.340000
v 0.475000 1.000000 1.340000
v -0.175000 1.000000 1.340000
v -0.175000 0.000000 1.760000
v 0.475000 0.000000 1.760000
v 0.475000 1.000000 1.760000
v -0.175000 1.000000 1.760000
v 4.775000 0.260000 1.775000
v 6.525000 0.260000 1.775000
v 6.525000 0.380000 1.775000
v 4.775000 0.380000 1.775000
v 4.775000 0.260000 3.025000
v 6.525000 0.260000 3.025000
v 6.525000 0.380000 3.025000
v 4.775000 0.380000 3.025000
v 4.550000 0.000000 2.200000
v 4.950000 0.000000 2.200000
v 4.950000 0.480000 2.200000
v 4.550000 0.480000 2.200000
v 4.550000 0.000000 2.600000
v 4.950000 0.000000 2.600000
v 4.950000 0.480000 2.600000
v 4.550000 0.480000 2.600000
v 6.350000 0.000000 2.200000
v 6.750000 0.000000 2.200000
v 6.750000 0.480000 2.200000
v 6.350000 0.480000 2.200000
v 6.350000 0.000000 2.600000
v 6.750000 0.000000 2.600000
v 6.750000 0.480000 2.600000
v 6.350000 0.480000 2.600000
v 5.450000 0.000000 1.500000
v 5.850000 0.000000 1.500000
v 5.850000 0.480000 1.500000
v 5.450000 0.480000 1.500000
v 5.450000 0.000000 1.900000
v 5.850000 0.000000 1.900000
v 5.850000 0.480000 1.900000
v 5.450000 0.480000 1.900000
v 5.450000 0.000000 2.900000
v 5.850000 0.000000 2.900000
v 5.850000 0.480000 2.900000
v 5.450000 0.480000 2.900000
v 5.450000 0.000000 3.300000
v 5.850000 0.000000 3.300000
v 5.850000 0.480000 3.300000
v 5.450000 0.480000 3.300000
v 6.575000 0.000000 2.760000
v 7.725000 0.000000 2.760000
v 7.725000 0.620000 2.760000
v 6.575000 0.620000 2.760000
v 6.575000 0.000000 3.280000
v 7.725000 0.000000 3.280000
v 7.725000 0.620000 3.280000
v 6.575000 0.620000 3.280000
v -6.375000 0.020000 -2.760000
v -4.925000 0.020000 -2.760000
v -4.925000 0.440000 -2.760000
v -6.375000 0.440000 -2.760000
v -6.375000 0.020000 -2.080000
v -4.925000 0.020000 -2.080000
v -4.925000 0.440000 -2.080000
v -6.375000 0.440000 -2.080000
v -4.690000 0.000000 -3.230000
v -4.210000 0.000000 -3.230000
v -4.210000 1.000000 -3.230000
v -4.690000 1.000000 -3.230000
v -4.690000 0.000000 -2.810000
v -4.210000 0.000000 -2.810000
v -4.210000 1.000000 -2.810000
v -4.690000 1.000000 -2.810000
v -4.875000 0.000000 -1.775000
v -4.225000 0.000000 -1.775000
v -4.225000 0.700000 -1.775000
v -4.875000 0.700000 -1.775000
v -4.875000 0.000000 -1.325000
v -4.225000 0.000000 -1.325000
v -4.225000 0.700000 -1.325000
v -4.875000 0.700000 -1.325000
v -2.725000 0.020000 -2.760000
v -1.275000 0.020000 -2.760000
v -1.275000 0.440000 -2.760000
v -2.725000 0.440000 -2.760000
v -2.725000 0.020000 -2.080000
v -1.275000 0.020000 -2.080000
v -1.275000 0.440000 -2.080000
v -2.725000 0.440000 -2.080000
v -0.990000 0.000000 -3.230000
v -0.510000 0.000000 -3.230000
v -0.510000 1.000000 -3.230000
v -0.990000 1.000000 -3.230000
v -0.990000 0.000000 -2.810000
v -0.510000 0.000000 -2.810000
v -0.510000 1.000000 -2.810000
v -0.990000 1.000000 -2.810000
v -1.175000 0.000000 -1.775000
v -0.525000 0.000000 -1.775000
v -0.525000 0.700000 -1.775000
v -1.175000 0.700000 -1.775000
v -1.175000 0.000000 -1.325000
v -0.525000 0.000000 -1.325000
v -0.525000 0.700000 -1.325000
v -1.175000 0.700000 -1.325000
v 0.375000 0.020000 -2.860000
v 2.125000 0.020000 -2.860000
v 2.125000 0.540000 -2.860000
v 0.375000 0.540000 -2.860000
v 0.375000 0.020000 -2.100000
v 2.125000 0.020000 -2.100000
v 2.125000 0.540000 -2.100000
v 0.375000 0.540000 -2.100000
v 2.210000 0.000000 -3.230000
v 2.890000 0.000000 -3.230000
v 2.890000 1.080000 -3.230000
v 2.210000 1.080000 -3.230000
v 2.210000 0.000000 -2.810000
v 2.890000 0.000000 -2.810000
v 2.890000 1.080000 -2.810000
v 2.210000 1.080000 -2.810000
v -0.190000 0.000000 -3.270000
v 0.490000 0.000000 -3.270000
v 0.490000 0.900000 -3.270000
v -0.190000 0.900000 -3.270000
v -0.190000 0.000000 -2.770000
v 0.490000 0.000000 -2.770000
v 0.490000 0.900000 -2.770000
v -0.190000 0.900000 -2.770000
v 5.810000 0.000000 -3.550000
v 5.810000 0.000000 -1.450000
v 5.690000 0.000000 -1.450000
v 5.690000 0.000000 -3.550000
v 5.810000 1.080000 -3.550000
v 5.810000 1.080000 -1.450000
v 5.690000 1.080000 -1.450000
v 5.690000 1.080000 -3.550000
v 4.260000 0.000000 -3.055000
v 4.840000 0.000000 -3.055000
v 4.840000 0.600000 -3.055000
v 4.260000 0.600000 -3.055000
v 4.260000 0.000000 -2.505000
v 4.840000 0.000000 -2.505000
v 4.840000 0.600000 -2.505000
v 4.260000 0.600000 -2.505000
v 5.005000 0.000000 -3.060000
v 5.555000 0.000000 -3.060000
v 5.555000 0.900000 -3.060000
v 5.005000 0.900000 -3.060000
v 5.005000 0.000000 -2.640000
v 5.555000 0.000000 -2.640000
v 5.555000 0.900000 -2.640000
v 5.005000 0.900000 -2.640000
v 6.225000 0.000000 -3.175000
v 7.375000 0.000000 -3.175000
v 7.375000 0.160000 -3.175000
v 6.225000 0.160000 -3.175000
v 6.225000 0.000000 -2.025000
v 7.375000 0.000000 -2.025000
v 7.375000 0.160000 -2.025000
v 6.225000 0.160000 -2.025000
v 6.960000 0.000000 -1.760000
v 7.540000 0.000000 -1.760000
v 7.540000 1.000000 -1.760000
v 6.960000 1.000000 -1.760000
v 6.960000 0.000000 -1.340000
v 7.540000 0.000000 -1.340000
v 7.540000 1.000000 -1.340000
v 6.960000 1.000000 -1.340000
v 8.000000 0.000000 -3.550000
v 8.000000 0.000000 3.550000
v 7.800000 0.000000 3.550000
v 7.800000 0.000000 -3.550000
v 8.000000 1.200000 -3.550000
v 8.000000 1.200000 3.550000
v 7.800000 1.200000 3.550000
v 7.800000 1.200000 -3.550000
v 8.025000 0.000000 -1.800000
v 10.275000 0.000000 -1.800000
v 10.275000 0.060000 -1.800000
v 8.025000 0.060000 -1.800000
v 8.025000 0.000000 1.800000
v 10.275000 0.000000 1.800000
v 10.275000 0.060000 1.800000
v 8.025000 0.060000 1.800000
v 8.175000 0.860000 -2.810000
v 10.425000 0.860000 -2.810000
v 10.425000 0.980000 -2.810000
v 8.175000 0.980000 -2.810000
v 8.175000 0.860000 -2.690000
v 10.425000 0.860000 -2.690000
v 10.425000 0.980000 -2.690000
v 8.175000 0.980000 -2.690000
v 8.175000 0.860000 2.690000
v 10.425000 0.860000 2.690000
v 10.425000 0.980000 2.690000
v 8.175000 0.980000 2.690000
v 8.175000 0.860000 2.810000
v 10.425000 0.860000 2.810000
v 10.425000 0.980000 2.810000
v 8.175000 0.980000 2.810000

o STRUCTURE_DeckSlab
usemtl Deck
f 20 19 18 17 16 15 14 13 12 11 10 9 8 7 6 5 4 3 2 1
f 21 22 23 24 25 26 27 28 29 30 31 32 33 34 35 36 37 38 39 40
f 1 2 22 21
f 2 3 23 22
f 3 4 24 23
f 4 5 25 24
f 5 6 26 25
f 6 7 27 26
f 7 8 28 27
f 8 9 29 28
f 9 10 30 29
f 10 11 31 30
f 11 12 32 31
f 12 13 33 32
f 13 14 34 33
f 14 15 35 34
f 15 16 36 35
f 16 17 37 36
f 17 18 38 37
f 18 19 39 38
f 19 20 40 39
f 20 1 21 40

o STRUCTURE_OuterBulkhead_00
usemtl Bulkhead
f 41 44 43 42
f 45 46 47 48
f 41 42 46 45
f 42 43 47 46
f 43 44 48 47
f 44 41 45 48

o STRUCTURE_OuterBulkhead_01
usemtl Bulkhead
f 49 52 51 50
f 53 54 55 56
f 49 50 54 53
f 50 51 55 54
f 51 52 56 55
f 52 49 53 56

o STRUCTURE_OuterBulkhead_02
usemtl Bulkhead
f 57 60 59 58
f 61 62 63 64
f 57 58 62 61
f 58 59 63 62
f 59 60 64 63
f 60 57 61 64

o STRUCTURE_OuterBulkhead_03
usemtl Bulkhead
f 65 68 67 66
f 69 70 71 72
f 65 66 70 69
f 66 67 71 70
f 67 68 72 71
f 68 65 69 72

o STRUCTURE_OuterBulkhead_04
usemtl Bulkhead
f 73 76 75 74
f 77 78 79 80
f 73 74 78 77
f 74 75 79 78
f 75 76 80 79
f 76 73 77 80

o STRUCTURE_OuterBulkhead_05
usemtl Bulkhead
f 81 84 83 82
f 85 86 87 88
f 81 82 86 85
f 82 83 87 86
f 83 84 88 87
f 84 81 85 88

o STRUCTURE_OuterBulkhead_06
usemtl Bulkhead
f 89 92 91 90
f 93 94 95 96
f 89 90 94 93
f 90 91 95 94
f 91 92 96 95
f 92 89 93 96

o STRUCTURE_OuterBulkhead_07
usemtl Bulkhead
f 97 100 99 98
f 101 102 103 104
f 97 98 102 101
f 98 99 103 102
f 99 100 104 103
f 100 97 101 104

o STRUCTURE_OuterBulkhead_08
usemtl Bulkhead
f 105 108 107 106
f 109 110 111 112
f 105 106 110 109
f 106 107 111 110
f 107 108 112 111
f 108 105 109 112

o STRUCTURE_OuterBulkhead_09
usemtl Bulkhead
f 113 116 115 114
f 117 118 119 120
f 113 114 118 117
f 114 115 119 118
f 115 116 120 119
f 116 113 117 120

o STRUCTURE_OuterBulkhead_10
usemtl Bulkhead
f 114 115 122 121
f 118 123 124 119
f 114 121 123 118
f 121 122 124 123
f 122 115 119 124
f 115 114 118 119

o STRUCTURE_OuterBulkhead_11
usemtl Bulkhead
f 125 128 127 126
f 129 130 131 132
f 125 126 130 129
f 126 127 131 130
f 127 128 132 131
f 128 125 129 132

o STRUCTURE_OuterBulkhead_12
usemtl Bulkhead
f 133 136 135 134
f 137 138 139 140
f 133 134 138 137
f 134 135 139 138
f 135 136 140 139
f 136 133 137 140

o STRUCTURE_OuterBulkhead_13
usemtl Bulkhead
f 141 144 143 142
f 145 146 147 148
f 141 142 146 145
f 142 143 147 146
f 143 144 148 147
f 144 141 145 148

o STRUCTURE_OuterBulkhead_14
usemtl Bulkhead
f 149 152 151 150
f 153 154 155 156
f 149 150 154 153
f 150 151 155 154
f 151 152 156 155
f 152 149 153 156

o STRUCTURE_OuterBulkhead_15
usemtl Bulkhead
f 157 160 159 158
f 161 162 163 164
f 157 158 162 161
f 158 159 163 162
f 159 160 164 163
f 160 157 161 164

o STRUCTURE_OuterBulkhead_16
usemtl Bulkhead
f 165 168 167 166
f 169 170 171 172
f 165 166 170 169
f 166 167 171 170
f 167 168 172 171
f 168 165 169 172

o STRUCTURE_OuterBulkhead_17
usemtl Bulkhead
f 173 176 175 174
f 177 178 179 180
f 173 174 178 177
f 174 175 179 178
f 175 176 180 179
f 176 173 177 180

o STRUCTURE_OuterBulkhead_18
usemtl Bulkhead
f 181 184 183 182
f 185 186 187 188
f 181 182 186 185
f 182 183 187 186
f 183 184 188 187
f 184 181 185 188

o STRUCTURE_OuterBulkhead_19
usemtl Bulkhead
f 189 192 191 190
f 193 194 195 196
f 189 190 194 193
f 190 191 195 194
f 191 192 196 195
f 192 189 193 196

o ROOM_01_COCKPIT_Floor
usemtl Deck
f 202 201 200 199 198 197
f 203 204 205 206 207 208
f 197 198 204 203
f 198 199 205 204
f 199 200 206 205
f 200 201 207 206
f 201 202 208 207
f 202 197 203 208

o ROOM_01_COCKPIT_Frame_0
usemtl Bulkhead
f 209 212 211 210
f 213 214 215 216
f 209 210 214 213
f 210 211 215 214
f 211 212 216 215
f 212 209 213 216

o ROOM_01_COCKPIT_Frame_1
usemtl Bulkhead
f 217 220 219 218
f 221 222 223 224
f 217 218 222 221
f 218 219 223 222
f 219 220 224 223
f 220 217 221 224

o ROOM_01_COCKPIT_Frame_2
usemtl Bulkhead
f 225 228 227 226
f 229 230 231 232
f 225 226 230 229
f 226 227 231 230
f 227 228 232 231
f 228 225 229 232

o ROOM_01_COCKPIT_Frame_3
usemtl Bulkhead
f 233 236 235 234
f 237 238 239 240
f 233 234 238 237
f 234 235 239 238
f 235 236 240 239
f 236 233 237 240

o ROOM_01_COCKPIT_Frame_4
usemtl Bulkhead
f 241 244 243 242
f 245 246 247 248
f 241 242 246 245
f 242 243 247 246
f 243 244 248 247
f 244 241 245 248

o ROOM_01_COCKPIT_Frame_5
usemtl Bulkhead
f 249 252 251 250
f 253 254 255 256
f 249 250 254 253
f 250 251 255 254
f 251 252 256 255
f 252 249 253 256

o ROOM_01_COCKPIT_PilotConsole
usemtl Console
f 257 258 259 260
f 261 264 263 262
f 257 261 262 258
f 258 262 263 259
f 259 263 264 260
f 261 257 260 264

o ROOM_01_COCKPIT_Seat_1
usemtl Fixture
f 265 266 267 268
f 269 272 271 270
f 265 269 270 266
f 266 270 271 267
f 267 271 272 268
f 269 265 268 272

o ROOM_01_COCKPIT_SeatBack_1
usemtl Fixture
f 273 274 275 276
f 277 280 279 278
f 273 277 278 274
f 274 278 279 275
f 275 279 280 276
f 277 273 276 280

o ROOM_01_COCKPIT_Seat_2
usemtl Fixture
f 281 282 283 284
f 285 288 287 286
f 281 285 286 282
f 282 286 287 283
f 283 287 288 284
f 285 281 284 288

o ROOM_01_COCKPIT_SeatBack_2
usemtl Fixture
f 289 290 291 292
f 293 296 295 294
f 289 293 294 290
f 290 294 295 291
f 291 295 296 292
f 293 289 292 296

o ROOM_01_COCKPIT_Seat_3
usemtl Fixture
f 297 298 299 300
f 301 304 303 302
f 297 301 302 298
f 298 302 303 299
f 299 303 304 300
f 301 297 300 304

o ROOM_01_COCKPIT_SeatBack_3
usemtl Fixture
f 305 306 307 308
f 309 312 311 310
f 305 309 310 306
f 306 310 311 307
f 307 311 312 308
f 309 305 308 312

o ROOM_02_AVIONICS_AftBulkhead
usemtl Bulkhead
f 313 316 315 314
f 317 318 319 320
f 313 314 318 317
f 314 315 319 318
f 315 316 320 319
f 316 313 317 320

o ROOM_02_AVIONICS_PortWall
usemtl Bulkhead
f 321 324 323 322
f 325 326 327 328
f 321 322 326 325
f 322 323 327 326
f 323 324 328 327
f 324 321 325 328

o ROOM_02_AVIONICS_StarboardWall
usemtl Bulkhead
f 329 332 331 330
f 333 334 335 336
f 329 330 334 333
f 330 331 335 334
f 331 332 336 335
f 332 329 333 336

o ROOM_02_AVIONICS_Rack
usemtl Machinery
f 337 338 339 340
f 341 344 343 342
f 337 341 342 338
f 338 342 343 339
f 339 343 344 340
f 341 337 340 344
f 345 346 347 348
f 349 352 351 350
f 345 349 350 346
f 346 350 351 347
f 347 351 352 348
f 349 345 348 352
f 353 354 355 356
f 357 360 359 358
f 353 357 358 354
f 354 358 359 355
f 355 359 360 356
f 357 353 356 360
f 361 362 363 364
f 365 368 367 366
f 361 365 366 362
f 362 366 367 363
f 363 367 368 364
f 365 361 364 368

o ROOM_02_AVIONICS_CentralConsole
usemtl Console
f 369 370 371 372
f 373 376 375 374
f 369 373 374 370
f 370 374 375 371
f 371 375 376 372
f 373 369 372 376

o STRUCTURE_MainCorridorFloor
usemtl Deck
f 377 378 379 380
f 381 384 383 382
f 377 381 382 378
f 378 382 383 379
f 379 383 384 380
f 381 377 380 384

o STRUCTURE_UpperRoomOuter
usemtl Bulkhead
f 385 388 387 386
f 389 390 391 392
f 385 386 390 389
f 386 387 391 390
f 387 388 392 391
f 388 385 389 392

o STRUCTURE_LowerRoomOuter
usemtl Bulkhead
f 393 396 395 394
f 397 398 399 400
f 393 394 398 397
f 394 395 399 398
f 395 396 400 399
f 396 393 397 400

o STRUCTURE_UpperDivider_-6.9
usemtl Bulkhead
f 401 404 403 402
f 405 406 407 408
f 401 402 406 405
f 402 403 407 406
f 403 404 408 407
f 404 401 405 408

o STRUCTURE_LowerDivider_-6.9
usemtl Bulkhead
f 409 412 411 410
f 413 414 415 416
f 409 410 414 413
f 410 411 415 414
f 411 412 416 415
f 412 409 413 416

o STRUCTURE_UpperDivider_-3.4
usemtl Bulkhead
f 417 420 419 418
f 421 422 423 424
f 417 418 422 421
f 418 419 423 422
f 419 420 424 423
f 420 417 421 424

o STRUCTURE_LowerDivider_-3.4
usemtl Bulkhead
f 425 428 427 426
f 429 430 431 432
f 425 426 430 429
f 426 427 431 430
f 427 428 432 431
f 428 425 429 432

o STRUCTURE_UpperDivider_0.0
usemtl Bulkhead
f 433 436 435 434
f 437 438 439 440
f 433 434 438 437
f 434 435 439 438
f 435 436 440 439
f 436 433 437 440

o STRUCTURE_LowerDivider_0.0
usemtl Bulkhead
f 441 444 443 442
f 445 446 447 448
f 441 442 446 445
f 442 443 447 446
f 443 444 448 447
f 444 441 445 448

o STRUCTURE_UpperDivider_3.7
usemtl Bulkhead
f 449 452 451 450
f 453 454 455 456
f 449 450 454 453
f 450 451 455 454
f 451 452 456 455
f 452 449 453 456

o STRUCTURE_LowerDivider_3.7
usemtl Bulkhead
f 457 460 459 458
f 461 462 463 464
f 457 458 462 461
f 458 459 463 462
f 459 460 464 463
f 460 457 461 464

o STRUCTURE_UpperDivider_7.9
usemtl Bulkhead
f 465 468 467 466
f 469 470 471 472
f 465 466 470 469
f 466 467 471 470
f 467 468 472 471
f 468 465 469 472

o STRUCTURE_LowerDivider_7.9
usemtl Bulkhead
f 473 476 475 474
f 477 478 479 480
f 473 474 478 477
f 474 475 479 478
f 475 476 480 479
f 476 473 477 480

o STRUCTURE_UpperCorridor_0_A
usemtl Bulkhead
f 481 484 483 482
f 485 486 487 488
f 481 482 486 485
f 482 483 487 486
f 483 484 488 487
f 484 481 485 488

o STRUCTURE_UpperCorridor_0_B
usemtl Bulkhead
f 489 492 491 490
f 493 494 495 496
f 489 490 494 493
f 490 491 495 494
f 491 492 496 495
f 492 489 493 496

o STRUCTURE_LowerCorridor_0_A
usemtl Bulkhead
f 497 500 499 498
f 501 502 503 504
f 497 498 502 501
f 498 499 503 502
f 499 500 504 503
f 500 497 501 504

o STRUCTURE_LowerCorridor_0_B
usemtl Bulkhead
f 505 508 507 506
f 509 510 511 512
f 505 506 510 509
f 506 507 511 510
f 507 508 512 511
f 508 505 509 512

o STRUCTURE_UpperCorridor_1_A
usemtl Bulkhead
f 490 491 514 513
f 494 515 516 495
f 490 513 515 494
f 513 514 516 515
f 514 491 495 516
f 491 490 494 495

o STRUCTURE_UpperCorridor_1_B
usemtl Bulkhead
f 517 520 519 518
f 521 522 523 524
f 517 518 522 521
f 518 519 523 522
f 519 520 524 523
f 520 517 521 524

o STRUCTURE_LowerCorridor_1_A
usemtl Bulkhead
f 506 507 526 525
f 510 527 528 511
f 506 525 527 510
f 525 526 528 527
f 526 507 511 528
f 507 506 510 511

o STRUCTURE_LowerCorridor_1_B
usemtl Bulkhead
f 529 532 531 530
f 533 534 535 536
f 529 530 534 533
f 530 531 535 534
f 531 532 536 535
f 532 529 533 536

o STRUCTURE_UpperCorridor_2_A
usemtl Bulkhead
f 518 519 538 537
f 522 539 540 523
f 518 537 539 522
f 537 538 540 539
f 538 519 523 540
f 519 518 522 523

o STRUCTURE_UpperCorridor_2_B
usemtl Bulkhead
f 541 544 543 542
f 545 546 547 548
f 541 542 546 545
f 542 543 547 546
f 543 544 548 547
f 544 541 545 548

o STRUCTURE_LowerCorridor_2_A
usemtl Bulkhead
f 530 531 550 549
f 534 551 552 535
f 530 549 551 534
f 549 550 552 551
f 550 531 535 552
f 531 530 534 535

o STRUCTURE_LowerCorridor_2_B
usemtl Bulkhead
f 553 556 555 554
f 557 558 559 560
f 553 554 558 557
f 554 555 559 558
f 555 556 560 559
f 556 553 557 560

o STRUCTURE_UpperCorridor_3_A
usemtl Bulkhead
f 542 543 562 561
f 546 563 564 547
f 542 561 563 546
f 561 562 564 563
f 562 543 547 564
f 543 542 546 547

o STRUCTURE_UpperCorridor_3_B
usemtl Bulkhead
f 565 568 567 566
f 569 570 571 572
f 565 566 570 569
f 566 567 571 570
f 567 568 572 571
f 568 565 569 572

o STRUCTURE_LowerCorridor_3_A
usemtl Bulkhead
f 554 555 574 573
f 558 575 576 559
f 554 573 575 558
f 573 574 576 575
f 574 555 559 576
f 555 554 558 559

o STRUCTURE_LowerCorridor_3_B
usemtl Bulkhead
f 577 580 579 578
f 581 582 583 584
f 577 578 582 581
f 578 579 583 582
f 579 580 584 583
f 580 577 581 584

o ROOM_03_CAPTAINS_CABIN_Bed
usemtl Fixture
f 585 586 587 588
f 589 592 591 590
f 585 589 590 586
f 586 590 591 587
f 587 591 592 588
f 589 585 588 592

o ROOM_03_CAPTAINS_CABIN_Desk
usemtl Fixture
f 593 594 595 596
f 597 600 599 598
f 593 597 598 594
f 594 598 599 595
f 595 599 600 596
f 597 593 596 600

o ROOM_03_CAPTAINS_CABIN_Locker
usemtl Fixture
f 601 602 603 604
f 605 608 607 606
f 601 605 606 602
f 602 606 607 603
f 603 607 608 604
f 605 601 604 608

o ROOM_04_CREW_QUARTERS_LowerBunk
usemtl Fixture
f 609 610 611 612
f 613 616 615 614
f 609 613 614 610
f 610 614 615 611
f 611 615 616 612
f 613 609 612 616

o ROOM_04_CREW_QUARTERS_UpperBunk
usemtl Fixture
f 617 618 619 620
f 621 624 623 622
f 617 621 622 618
f 618 622 623 619
f 619 623 624 620
f 621 617 620 624

o ROOM_04_CREW_QUARTERS_LowerBunk
usemtl Fixture
f 625 626 627 628
f 629 632 631 630
f 625 629 630 626
f 626 630 631 627
f 627 631 632 628
f 629 625 628 632

o ROOM_04_CREW_QUARTERS_UpperBunk
usemtl Fixture
f 633 634 635 636
f 637 640 639 638
f 633 637 638 634
f 634 638 639 635
f 635 639 640 636
f 637 633 636 640

o ROOM_04_CREW_QUARTERS_Lockers
usemtl Fixture
f 641 642 643 644
f 645 648 647 646
f 641 645 646 642
f 642 646 647 643
f 643 647 648 644
f 645 641 644 648

o ROOM_05_GALLEY_Counter
usemtl Fixture
f 649 650 651 652
f 653 656 655 654
f 649 653 654 650
f 650 654 655 651
f 651 655 656 652
f 653 649 652 656

o ROOM_05_GALLEY_ColdStorage
usemtl Fixture
f 657 658 659 660
f 661 664 663 662
f 657 661 662 658
f 658 662 663 659
f 659 663 664 660
f 661 657 660 664

o ROOM_05_GALLEY_Pantry
usemtl Fixture
f 665 666 667 668
f 669 672 671 670
f 665 669 670 666
f 666 670 671 667
f 667 671 672 668
f 669 665 668 672

o ROOM_06_MESS_COMMON_Table
usemtl Fixture
f 673 674 675 676
f 677 680 679 678
f 673 677 678 674
f 674 678 679 675
f 675 679 680 676
f 677 673 676 680

o ROOM_06_MESS_COMMON_Seat
usemtl Fixture
f 681 682 683 684
f 685 688 687 686
f 681 685 686 682
f 682 686 687 683
f 683 687 688 684
f 685 681 684 688
f 689 690 691 692
f 693 696 695 694
f 689 693 694 690
f 690 694 695 691
f 691 695 696 692
f 693 689 692 696
f 697 698 699 700
f 701 704 703 702
f 697 701 702 698
f 698 702 703 699
f 699 703 704 700
f 701 697 700 704
f 705 706 707 708
f 709 712 711 710
f 705 709 710 706
f 706 710 711 707
f 707 711 712 708
f 709 705 708 712

o ROOM_06_MESS_COMMON_Sofa
usemtl Fixture
f 713 714 715 716
f 717 720 719 718
f 713 717 718 714
f 714 718 719 715
f 715 719 720 716
f 717 713 716 720

o ROOM_09_PASSENGER_A_Bed
usemtl Fixture
f 721 722 723 724
f 725 728 727 726
f 721 725 726 722
f 722 726 727 723
f 723 727 728 724
f 725 721 724 728

o ROOM_09_PASSENGER_A_Locker
usemtl Fixture
f 729 730 731 732
f 733 736 735 734
f 729 733 734 730
f 730 734 735 731
f 731 735 736 732
f 733 729 732 736

o ROOM_09_PASSENGER_A_Desk
usemtl Fixture
f 737 738 739 740
f 741 744 743 742
f 737 741 742 738
f 738 742 743 739
f 739 743 744 740
f 741 737 740 744

o ROOM_10_PASSENGER_B_Bed
usemtl Fixture
f 745 746 747 748
f 749 752 751 750
f 745 749 750 746
f 746 750 751 747
f 747 751 752 748
f 749 745 748 752

o ROOM_10_PASSENGER_B_Locker
usemtl Fixture
f 753 754 755 756
f 757 760 759 758
f 753 757 758 754
f 754 758 759 755
f 755 759 760 756
f 757 753 756 760

o ROOM_10_PASSENGER_B_Desk
usemtl Fixture
f 761 762 763 764
f 765 768 767 766
f 761 765 766 762
f 762 766 767 763
f 763 767 768 764
f 765 761 764 768

o ROOM_08_MEDBAY_TreatmentBed
usemtl Medical
f 769 770 771 772
f 773 776 775 774
f 769 773 774 770
f 770 774 775 771
f 771 775 776 772
f 773 769 772 776

o ROOM_08_MEDBAY_MedCabinet
usemtl Medical
f 777 778 779 780
f 781 784 783 782
f 777 781 782 778
f 778 782 783 779
f 779 783 784 780
f 781 777 780 784

o ROOM_08_MEDBAY_Equipment
usemtl Medical
f 785 786 787 788
f 789 792 791 790
f 785 789 790 786
f 786 790 791 787
f 787 791 792 788
f 789 785 788 792

o ROOM_07_HEAD_PrivacyDivider
usemtl Bulkhead
f 793 796 795 794
f 797 798 799 800
f 793 794 798 797
f 794 795 799 798
f 795 796 800 799
f 796 793 797 800

o ROOM_07_HEAD_Toilet
usemtl Fixture
f 801 802 803 804
f 805 808 807 806
f 801 805 806 802
f 802 806 807 803
f 803 807 808 804
f 805 801 804 808

o ROOM_07_HEAD_Sink
usemtl Fixture
f 809 810 811 812
f 813 816 815 814
f 809 813 814 810
f 810 814 815 811
f 811 815 816 812
f 813 809 812 816

o ROOM_07_HEAD_Shower
usemtl Fixture
f 817 818 819 820
f 821 824 823 822
f 817 821 822 818
f 818 822 823 819
f 819 823 824 820
f 821 817 820 824

o ROOM_07_HEAD_Storage
usemtl Fixture
f 825 826 827 828
f 829 832 831 830
f 825 829 830 826
f 826 830 831 827
f 827 831 832 828
f 829 825 828 832

o STRUCTURE_AftPressureBulkhead
usemtl Bulkhead
f 833 836 835 834
f 837 838 839 840
f 833 834 838 837
f 834 835 839 838
f 835 836 840 839
f 836 833 837 840

o STRUCTURE_AftAccessPlatform
usemtl Deck
f 841 842 843 844
f 845 848 847 846
f 841 845 846 842
f 842 846 847 843
f 843 847 848 844
f 845 841 844 848

o STRUCTURE_AftConduit
usemtl Metal
f 849 850 851 852
f 853 856 855 854
f 849 853 854 850
f 850 854 855 851
f 851 855 856 852
f 853 849 852 856
f 857 858 859 860
f 861 864 863 862
f 857 861 862 858
f 858 862 863 859
f 859 863 864 860
f 861 857 860 864
