# STW-T01 StingWasp Transport v2
# Corrected docking collars, landing gear and cargo-bay doors
# 1 unit = 1 metre
mtllib STW-T01_StingWasp_v2.mtl
v 0.220000 0.050000 15.500000
v 0.212193 0.221730 15.500000
v 0.188865 0.322833 15.500000
v 0.150058 0.393391 15.500000
v 0.094452 0.435806 15.500000
v 0.000000 0.450000 15.500000
v -0.094452 0.435806 15.500000
v -0.150058 0.393391 15.500000
v -0.188865 0.322833 15.500000
v -0.212193 0.221730 15.500000
v -0.220000 0.050000 15.500000
v -0.212193 -0.121730 15.500000
v -0.188865 -0.222833 15.500000
v -0.150058 -0.293391 15.500000
v -0.094452 -0.335806 15.500000
v -0.000000 -0.350000 15.500000
v 0.094452 -0.335806 15.500000
v 0.150058 -0.293391 15.500000
v 0.188865 -0.222833 15.500000
v 0.212193 -0.121730 15.500000
v 0.700000 0.125000 15.000000
v 0.675160 0.479194 15.000000
v 0.600935 0.687719 15.000000
v 0.477458 0.833245 15.000000
v 0.300528 0.920724 15.000000
v 0.000000 0.950000 15.000000
v -0.300528 0.920724 15.000000
v -0.477458 0.833245 15.000000
v -0.600935 0.687719 15.000000
v -0.675160 0.479194 15.000000
v -0.700000 0.125000 15.000000
v -0.675160 -0.229194 15.000000
v -0.600935 -0.437719 15.000000
v -0.477458 -0.583245 15.000000
v -0.300528 -0.670724 15.000000
v -0.000000 -0.700000 15.000000
v 0.300528 -0.670724 15.000000
v 0.477458 -0.583245 15.000000
v 0.600935 -0.437719 15.000000
v 0.675160 -0.229194 15.000000
v 1.450000 0.250000 14.100000
v 1.398545 0.851057 14.100000
v 1.244794 1.204917 14.100000
v 0.989021 1.451870 14.100000
v 0.622523 1.600320 14.100000
v 0.000000 1.650000 14.100000
v -0.622523 1.600320 14.100000
v -0.989021 1.451870 14.100000
v -1.244794 1.204917 14.100000
v -1.398545 0.851057 14.100000
v -1.450000 0.250000 14.100000
v -1.398545 -0.351057 14.100000
v -1.244794 -0.704917 14.100000
v -0.989021 -0.951870 14.100000
v -0.622523 -1.100320 14.100000
v -0.000000 -1.150000 14.100000
v 0.622523 -1.100320 14.100000
v 0.989021 -0.951870 14.100000
v 1.244794 -0.704917 14.100000
v 1.398545 -0.351057 14.100000
v 2.050000 0.350000 13.200000
v 1.977254 1.122787 13.200000
v 1.759881 1.577750 13.200000
v 1.398271 1.895262 13.200000
v 0.880119 2.086125 13.200000
v 0.000000 2.150000 13.200000
v -0.880119 2.086125 13.200000
v -1.398271 1.895262 13.200000
v -1.759881 1.577750 13.200000
v -1.977254 1.122787 13.200000
v -2.050000 0.350000 13.200000
v -1.977254 -0.422787 13.200000
v -1.759881 -0.877750 13.200000
v -1.398271 -1.195262 13.200000
v -0.880119 -1.386125 13.200000
v -0.000000 -1.450000 13.200000
v 0.880119 -1.386125 13.200000
v 1.398271 -1.195262 13.200000
v 1.759881 -0.877750 13.200000
v 1.977254 -0.422787 13.200000
v 2.750000 0.425000 12.200000
v 2.652414 1.423183 12.200000
v 2.360816 2.010844 12.200000
v 1.875729 2.420963 12.200000
v 1.180647 2.667495 12.200000
v 0.000000 2.750000 12.200000
v -1.180647 2.667495 12.200000
v -1.875729 2.420963 12.200000
v -2.360816 2.010844 12.200000
v -2.652414 1.423183 12.200000
v -2.750000 0.425000 12.200000
v -2.652414 -0.573183 12.200000
v -2.360816 -1.160844 12.200000
v -1.875729 -1.570963 12.200000
v -1.180647 -1.817495 12.200000
v -0.000000 -1.900000 12.200000
v 1.180647 -1.817495 12.200000
v 1.875729 -1.570963 12.200000
v 2.360816 -1.160844 12.200000
v 2.652414 -0.573183 12.200000
v 3.250000 0.450000 11.200000
v 3.134671 1.544782 11.200000
v 2.790056 2.189313 11.200000
v 2.216771 2.639121 11.200000
v 1.395310 2.909511 11.200000
v 0.000000 3.000000 11.200000
v -1.395310 2.909511 11.200000
v -2.216771 2.639121 11.200000
v -2.790056 2.189313 11.200000
v -3.134671 1.544782 11.200000
v -3.250000 0.450000 11.200000
v -3.134671 -0.644782 11.200000
v -2.790056 -1.289313 11.200000
v -2.216771 -1.739121 11.200000
v -1.395310 -2.009511 11.200000
v -0.000000 -2.100000 11.200000
v 1.395310 -2.009511 11.200000
v 2.216771 -1.739121 11.200000
v 2.790056 -1.289313 11.200000
v 3.134671 -0.644782 11.200000
v 3.950000 0.475000 9.400000
v 3.809830 1.752245 9.400000
v 3.390991 2.504198 9.400000
v 2.694229 3.028974 9.400000
v 1.695838 3.344429 9.400000
v 0.000000 3.450000 9.400000
v -1.695838 3.344429 9.400000
v -2.694229 3.028974 9.400000
v -3.390991 2.504198 9.400000
v -3.809830 1.752245 9.400000
v -3.950000 0.475000 9.400000
v -3.809830 -0.802245 9.400000
v -3.390991 -1.554198 9.400000
v -2.694229 -2.078974 9.400000
v -1.695838 -2.394429 9.400000
v -0.000000 -2.500000 9.400000
v 1.695838 -2.394429 9.400000
v 2.694229 -2.078974 9.400000
v 3.390991 -1.554198 9.400000
v 3.809830 -0.802245 9.400000
v 4.550000 0.425000 7.200000
v 4.388539 1.852509 7.200000
v 3.906078 2.692927 7.200000
v 3.103479 3.279442 7.200000
v 1.953434 3.632009 7.200000
v 0.000000 3.750000 7.200000
v -1.953434 3.632009 7.200000
v -3.103479 3.279442 7.200000
v -3.906078 2.692927 7.200000
v -4.388539 1.852509 7.200000
v -4.550000 0.425000 7.200000
v -4.388539 -1.002509 7.200000
v -3.906078 -1.842927 7.200000
v -3.103479 -2.429442 7.200000
v -1.953434 -2.782009 7.200000
v -0.000000 -2.900000 7.200000
v 1.953434 -2.782009 7.200000
v 3.103479 -2.429442 7.200000
v 3.906078 -1.842927 7.200000
v 4.388539 -1.002509 7.200000
v 5.100000 0.350000 5.200000
v 4.919022 1.895574 5.200000
v 4.378241 2.805500 5.200000
v 3.478625 3.440523 5.200000
v 2.189563 3.822251 5.200000
v 0.000000 3.950000 5.200000
v -2.189563 3.822251 5.200000
v -3.478625 3.440523 5.200000
v -4.378241 2.805500 5.200000
v -4.919022 1.895574 5.200000
v -5.100000 0.350000 5.200000
v -4.919022 -1.195574 5.200000
v -4.378241 -2.105500 5.200000
v -3.478625 -2.740523 5.200000
v -2.189563 -3.122251 5.200000
v -0.000000 -3.250000 5.200000
v 2.189563 -3.122251 5.200000
v 3.478625 -2.740523 5.200000
v 4.378241 -2.105500 5.200000
v 4.919022 -1.195574 5.200000
v 5.250000 0.250000 2.500000
v 5.063699 1.881439 2.500000
v 4.507013 2.841917 2.500000
v 3.580938 3.512219 2.500000
v 2.253962 3.915153 2.500000
v 0.000000 4.050000 2.500000
v -2.253962 3.915153 2.500000
v -3.580938 3.512219 2.500000
v -4.507013 2.841917 2.500000
v -5.063699 1.881439 2.500000
v -5.250000 0.250000 2.500000
v -5.063699 -1.381439 2.500000
v -4.507013 -2.341917 2.500000
v -3.580938 -3.012219 2.500000
v -2.253962 -3.415153 2.500000
v -0.000000 -3.550000 2.500000
v 2.253962 -3.415153 2.500000
v 3.580938 -3.012219 2.500000
v 4.507013 -2.341917 2.500000
v 5.063699 -1.381439 2.500000
v 5.250000 0.250000 0.000000
v 5.063699 1.902906 0.000000
v 4.507013 2.876021 0.000000
v 3.580938 3.555143 0.000000
v 2.253962 3.963379 0.000000
v 0.000000 4.100000 0.000000
v -2.253962 3.963379 0.000000
v -3.580938 3.555143 0.000000
v -4.507013 2.876021 0.000000
v -5.063699 1.902906 0.000000
v -5.250000 0.250000 0.000000
v -5.063699 -1.402906 0.000000
v -4.507013 -2.376021 0.000000
v -3.580938 -3.055143 0.000000
v -2.253962 -3.463379 0.000000
v -0.000000 -3.600000 0.000000
v 2.253962 -3.463379 0.000000
v 3.580938 -3.055143 0.000000
v 4.507013 -2.376021 0.000000
v 5.063699 -1.402906 0.000000
v 5.200000 0.250000 -2.500000
v 5.015473 1.881439 -2.500000
v 4.464089 2.841917 -2.500000
v 3.546833 3.512219 -2.500000
v 2.232496 3.915153 -2.500000
v 0.000000 4.050000 -2.500000
v -2.232496 3.915153 -2.500000
v -3.546833 3.512219 -2.500000
v -4.464089 2.841917 -2.500000
v -5.015473 1.881439 -2.500000
v -5.200000 0.250000 -2.500000
v -5.015473 -1.381439 -2.500000
v -4.464089 -2.341917 -2.500000
v -3.546833 -3.012219 -2.500000
v -2.232496 -3.415153 -2.500000
v -0.000000 -3.550000 -2.500000
v 2.232496 -3.415153 -2.500000
v 3.546833 -3.012219 -2.500000
v 4.464089 -2.341917 -2.500000
v 5.015473 -1.381439 -2.500000
v 4.850000 0.275000 -4.800000
v 4.677893 1.809841 -4.800000
v 4.163622 2.713448 -4.800000
v 3.308104 3.344061 -4.800000
v 2.082232 3.723138 -4.800000
v 0.000000 3.850000 -4.800000
v -2.082232 3.723138 -4.800000
v -3.308104 3.344061 -4.800000
v -4.163622 2.713448 -4.800000
v -4.677893 1.809841 -4.800000
v -4.850000 0.275000 -4.800000
v -4.677893 -1.259841 -4.800000
v -4.163622 -2.163448 -4.800000
v -3.308104 -2.794061 -4.800000
v -2.082232 -3.173138 -4.800000
v -0.000000 -3.300000 -4.800000
v 2.082232 -3.173138 -4.800000
v 3.308104 -2.794061 -4.800000
v 4.163622 -2.163448 -4.800000
v 4.677893 -1.259841 -4.800000
v 4.100000 0.250000 -6.800000
v 3.954508 1.623844 -6.800000
v 3.519763 2.432667 -6.800000
v 2.796542 2.997132 -6.800000
v 1.760237 3.336445 -6.800000
v 0.000000 3.450000 -6.800000
v -1.760237 3.336445 -6.800000
v -2.796542 2.997132 -6.800000
v -3.519763 2.432667 -6.800000
v -3.954508 1.623844 -6.800000
v -4.100000 0.250000 -6.800000
v -3.954508 -1.123844 -6.800000
v -3.519763 -1.932667 -6.800000
v -2.796542 -2.497132 -6.800000
v -1.760237 -2.836445 -6.800000
v -0.000000 -2.950000 -6.800000
v 1.760237 -2.836445 -6.800000
v 2.796542 -2.497132 -6.800000
v 3.519763 -1.932667 -6.800000
v 3.954508 -1.123844 -6.800000
v 3.650000 0.250000 -8.100000
v 3.520476 1.516512 -8.100000
v 3.133447 2.262146 -8.100000
v 2.489604 2.782512 -8.100000
v 1.567040 3.095316 -8.100000
v 0.000000 3.200000 -8.100000
v -1.567040 3.095316 -8.100000
v -2.489604 2.782512 -8.100000
v -3.133447 2.262146 -8.100000
v -3.520476 1.516512 -8.100000
v -3.650000 0.250000 -8.100000
v -3.520476 -1.016512 -8.100000
v -3.133447 -1.762146 -8.100000
v -2.489604 -2.282512 -8.100000
v -1.567040 -2.595316 -8.100000
v -0.000000 -2.700000 -8.100000
v 1.567040 -2.595316 -8.100000
v 2.489604 -2.282512 -8.100000
v 3.133447 -1.762146 -8.100000
v 3.520476 -1.016512 -8.100000
v 4.050000 0.250000 -9.500000
v 3.906282 1.580911 -9.500000
v 3.476839 2.364458 -9.500000
v 2.762438 2.911284 -9.500000
v 1.738771 3.239994 -9.500000
v 0.000000 3.350000 -9.500000
v -1.738771 3.239994 -9.500000
v -2.762438 2.911284 -9.500000
v -3.476839 2.364458 -9.500000
v -3.906282 1.580911 -9.500000
v -4.050000 0.250000 -9.500000
v -3.906282 -1.080911 -9.500000
v -3.476839 -1.864458 -9.500000
v -2.762438 -2.411284 -9.500000
v -1.738771 -2.739994 -9.500000
v -0.000000 -2.850000 -9.500000
v 1.738771 -2.739994 -9.500000
v 2.762438 -2.411284 -9.500000
v 3.476839 -1.864458 -9.500000
v 3.906282 -1.080911 -9.500000
v 4.550000 0.200000 -11.200000
v 4.388539 1.595310 -11.200000
v 3.906078 2.416771 -11.200000
v 3.103479 2.990056 -11.200000
v 1.953434 3.334671 -11.200000
v 0.000000 3.450000 -11.200000
v -1.953434 3.334671 -11.200000
v -3.103479 2.990056 -11.200000
v -3.906078 2.416771 -11.200000
v -4.388539 1.595310 -11.200000
v -4.550000 0.200000 -11.200000
v -4.388539 -1.195310 -11.200000
v -3.906078 -2.016771 -11.200000
v -3.103479 -2.590056 -11.200000
v -1.953434 -2.934671 -11.200000
v -0.000000 -3.050000 -11.200000
v 1.953434 -2.934671 -11.200000
v 3.103479 -2.590056 -11.200000
v 3.906078 -2.016771 -11.200000
v 4.388539 -1.195310 -11.200000
v 4.800000 0.150000 -12.800000
v 4.629667 1.480911 -12.800000
v 4.120698 2.264458 -12.800000
v 3.274000 2.811284 -12.800000
v 2.060765 3.139994 -12.800000
v 0.000000 3.250000 -12.800000
v -2.060765 3.139994 -12.800000
v -3.274000 2.811284 -12.800000
v -4.120698 2.264458 -12.800000
v -4.629667 1.480911 -12.800000
v -4.800000 0.150000 -12.800000
v -4.629667 -1.180911 -12.800000
v -4.120698 -1.964458 -12.800000
v -3.274000 -2.511284 -12.800000
v -2.060765 -2.839994 -12.800000
v -0.000000 -2.950000 -12.800000
v 2.060765 -2.839994 -12.800000
v 3.274000 -2.511284 -12.800000
v 4.120698 -1.964458 -12.800000
v 4.629667 -1.180911 -12.800000
v 4.250000 0.125000 -14.200000
v 4.099185 1.316380 -14.200000
v 3.648534 2.017781 -14.200000
v 2.898854 2.507278 -14.200000
v 1.824636 2.801526 -14.200000
v 0.000000 2.900000 -14.200000
v -1.824636 2.801526 -14.200000
v -2.898854 2.507278 -14.200000
v -3.648534 2.017781 -14.200000
v -4.099185 1.316380 -14.200000
v -4.250000 0.125000 -14.200000
v -4.099185 -1.066380 -14.200000
v -3.648534 -1.767781 -14.200000
v -2.898854 -2.257278 -14.200000
v -1.824636 -2.551526 -14.200000
v -0.000000 -2.650000 -14.200000
v 1.824636 -2.551526 -14.200000
v 2.898854 -2.257278 -14.200000
v 3.648534 -1.767781 -14.200000
v 4.099185 -1.066380 -14.200000
v 3.450000 0.125000 -15.100000
v 3.327573 1.166116 -15.100000
v 2.961751 1.779052 -15.100000
v 2.353188 2.206811 -15.100000
v 1.481175 2.463947 -15.100000
v 0.000000 2.550000 -15.100000
v -1.481175 2.463947 -15.100000
v -2.353188 2.206811 -15.100000
v -2.961751 1.779052 -15.100000
v -3.327573 1.166116 -15.100000
v -3.450000 0.125000 -15.100000
v -3.327573 -0.916116 -15.100000
v -2.961751 -1.529052 -15.100000
v -2.353188 -1.956811 -15.100000
v -1.481175 -2.213947 -15.100000
v -0.000000 -2.300000 -15.100000
v 1.481175 -2.213947 -15.100000
v 2.353188 -1.956811 -15.100000
v 2.961751 -1.529052 -15.100000
v 3.327573 -0.916116 -15.100000
v 2.800000 0.100000 -15.500000
v 2.700639 1.001585 -15.500000
v 2.403740 1.532375 -15.500000
v 1.909833 1.902805 -15.500000
v 1.202113 2.125479 -15.500000
v 0.000000 2.200000 -15.500000
v -1.202113 2.125479 -15.500000
v -1.909833 1.902805 -15.500000
v -2.403740 1.532375 -15.500000
v -2.700639 1.001585 -15.500000
v -2.800000 0.100000 -15.500000
v -2.700639 -0.801585 -15.500000
v -2.403740 -1.332375 -15.500000
v -1.909833 -1.702805 -15.500000
v -1.202113 -1.925479 -15.500000
v -0.000000 -2.000000 -15.500000
v 1.202113 -1.925479 -15.500000
v 1.909833 -1.702805 -15.500000
v 2.403740 -1.332375 -15.500000
v 2.700639 -0.801585 -15.500000
v 0.520000 0.750000 14.550000
v 0.491186 0.900233 14.550000
v 0.405166 0.983749 14.550000
v 0.260404 1.033377 14.550000
v 0.000000 1.050000 14.550000
v -0.260404 1.033377 14.550000
v -0.405166 0.983749 14.550000
v -0.491186 0.900233 14.550000
v -0.520000 0.750000 14.550000
v -0.491186 0.599767 14.550000
v -0.405166 0.516251 14.550000
v -0.260404 0.466623 14.550000
v -0.000000 0.450000 14.550000
v 0.260404 0.466623 14.550000
v 0.405166 0.516251 14.550000
v 0.491186 0.599767 14.550000
v 1.050000 1.185000 13.750000
v 0.991819 1.467939 13.750000
v 0.818123 1.625228 13.750000
v 0.525816 1.718693 13.750000
v 0.000000 1.750000 13.750000
v -0.525816 1.718693 13.750000
v -0.818123 1.625228 13.750000
v -0.991819 1.467939 13.750000
v -1.050000 1.185000 13.750000
v -0.991819 0.902061 13.750000
v -0.818123 0.744772 13.750000
v -0.525816 0.651307 13.750000
v -0.000000 0.620000 13.750000
v 0.525816 0.651307 13.750000
v 0.818123 0.744772 13.750000
v 0.991819 0.902061 13.750000
v 1.480000 1.540000 12.950000
v 1.397992 1.920591 12.950000
v 1.153164 2.132165 12.950000
v 0.741150 2.257888 12.950000
v 0.000000 2.300000 12.950000
v -0.741150 2.257888 12.950000
v -1.153164 2.132165 12.950000
v -1.397992 1.920591 12.950000
v -1.480000 1.540000 12.950000
v -1.397992 1.159409 12.950000
v -1.153164 0.947835 12.950000
v -0.741150 0.822112 12.950000
v -0.000000 0.780000 12.950000
v 0.741150 0.822112 12.950000
v 1.153164 0.947835 12.950000
v 1.397992 1.159409 12.950000
v 1.720000 1.885000 12.100000
v 1.624694 2.303149 12.100000
v 1.340163 2.535602 12.100000
v 0.861337 2.673732 12.100000
v 0.000000 2.720000 12.100000
v -0.861337 2.673732 12.100000
v -1.340163 2.535602 12.100000
v -1.624694 2.303149 12.100000
v -1.720000 1.885000 12.100000
v -1.624694 1.466851 12.100000
v -1.340163 1.234398 12.100000
v -0.861337 1.096268 12.100000
v -0.000000 1.050000 12.100000
v 0.861337 1.096268 12.100000
v 1.340163 1.234398 12.100000
v 1.624694 1.466851 12.100000
v 1.550000 2.235000 11.350000
v 1.464114 2.578032 11.350000
v 1.207705 2.768728 11.350000
v 0.776205 2.882044 11.350000
v 0.000000 2.920000 11.350000
v -0.776205 2.882044 11.350000
v -1.207705 2.768728 11.350000
v -1.464114 2.578032 11.350000
v -1.550000 2.235000 11.350000
v -1.464114 1.891968 11.350000
v -1.207705 1.701272 11.350000
v -0.776205 1.587956 11.350000
v -0.000000 1.550000 11.350000
v 0.776205 1.587956 11.350000
v 1.207705 1.701272 11.350000
v 1.464114 1.891968 11.350000
v -2.600000 0.250000 -14.900000
v -2.600000 0.250000 -10.100000
v -2.635778 0.521760 -14.900000
v -2.635778 0.521760 -10.100000
v -2.740673 0.775000 -14.900000
v -2.740673 0.775000 -10.100000
v -2.907538 0.992462 -14.900000
v -2.907538 0.992462 -10.100000
v -3.125000 1.159327 -14.900000
v -3.125000 1.159327 -10.100000
v -3.378240 1.264222 -14.900000
v -3.378240 1.264222 -10.100000
v -3.650000 1.300000 -14.900000
v -3.650000 1.300000 -10.100000
v -3.921760 1.264222 -14.900000
v -3.921760 1.264222 -10.100000
v -4.175000 1.159327 -14.900000
v -4.175000 1.159327 -10.100000
v -4.392462 0.992462 -14.900000
v -4.392462 0.992462 -10.100000
v -4.559327 0.775000 -14.900000
v -4.559327 0.775000 -10.100000
v -4.664222 0.521760 -14.900000
v -4.664222 0.521760 -10.100000
v -4.700000 0.250000 -14.900000
v -4.700000 0.250000 -10.100000
v -4.664222 -0.021760 -14.900000
v -4.664222 -0.021760 -10.100000
v -4.559327 -0.275000 -14.900000
v -4.559327 -0.275000 -10.100000
v -4.392462 -0.492462 -14.900000
v -4.392462 -0.492462 -10.100000
v -4.175000 -0.659327 -14.900000
v -4.175000 -0.659327 -10.100000
v -3.921760 -0.764222 -14.900000
v -3.921760 -0.764222 -10.100000
v -3.650000 -0.800000 -14.900000
v -3.650000 -0.800000 -10.100000
v -3.378240 -0.764222 -14.900000
v -3.378240 -0.764222 -10.100000
v -3.125000 -0.659327 -14.900000
v -3.125000 -0.659327 -10.100000
v -2.907538 -0.492462 -14.900000
v -2.907538 -0.492462 -10.100000
v -2.740673 -0.275000 -14.900000
v -2.740673 -0.275000 -10.100000
v -2.635778 -0.021760 -14.900000
v -2.635778 -0.021760 -10.100000
v -2.370000 0.250000 -15.275000
v -2.370000 0.250000 -14.825000
v -2.413615 0.581288 -15.275000
v -2.413615 0.581288 -14.825000
v -2.541487 0.890000 -15.275000
v -2.541487 0.890000 -14.825000
v -2.744903 1.155097 -15.275000
v -2.744903 1.155097 -14.825000
v -3.010000 1.358513 -15.275000
v -3.010000 1.358513 -14.825000
v -3.318712 1.486385 -15.275000
v -3.318712 1.486385 -14.825000
v -3.650000 1.530000 -15.275000
v -3.650000 1.530000 -14.825000
v -3.981288 1.486385 -15.275000
v -3.981288 1.486385 -14.825000
v -4.290000 1.358513 -15.275000
v -4.290000 1.358513 -14.825000
v -4.555097 1.155097 -15.275000
v -4.555097 1.155097 -14.825000
v -4.758513 0.890000 -15.275000
v -4.758513 0.890000 -14.825000
v -4.886385 0.581288 -15.275000
v -4.886385 0.581288 -14.825000
v -4.930000 0.250000 -15.275000
v -4.930000 0.250000 -14.825000
v -4.886385 -0.081288 -15.275000
v -4.886385 -0.081288 -14.825000
v -4.758513 -0.390000 -15.275000
v -4.758513 -0.390000 -14.825000
v -4.555097 -0.655097 -15.275000
v -4.555097 -0.655097 -14.825000
v -4.290000 -0.858513 -15.275000
v -4.290000 -0.858513 -14.825000
v -3.981288 -0.986385 -15.275000
v -3.981288 -0.986385 -14.825000
v -3.650000 -1.030000 -15.275000
v -3.650000 -1.030000 -14.825000
v -3.318712 -0.986385 -15.275000
v -3.318712 -0.986385 -14.825000
v -3.010000 -0.858513 -15.275000
v -3.010000 -0.858513 -14.825000
v -2.744903 -0.655097 -15.275000
v -2.744903 -0.655097 -14.825000
v -2.541487 -0.390000 -15.275000
v -2.541487 -0.390000 -14.825000
v -2.413615 -0.081288 -15.275000
v -2.413615 -0.081288 -14.825000
v 4.700000 0.250000 -14.900000
v 4.700000 0.250000 -10.100000
v 4.664222 0.521760 -14.900000
v 4.664222 0.521760 -10.100000
v 4.559327 0.775000 -14.900000
v 4.559327 0.775000 -10.100000
v 4.392462 0.992462 -14.900000
v 4.392462 0.992462 -10.100000
v 4.175000 1.159327 -14.900000
v 4.175000 1.159327 -10.100000
v 3.921760 1.264222 -14.900000
v 3.921760 1.264222 -10.100000
v 3.650000 1.300000 -14.900000
v 3.650000 1.300000 -10.100000
v 3.378240 1.264222 -14.900000
v 3.378240 1.264222 -10.100000
v 3.125000 1.159327 -14.900000
v 3.125000 1.159327 -10.100000
v 2.907538 0.992462 -14.900000
v 2.907538 0.992462 -10.100000
v 2.740673 0.775000 -14.900000
v 2.740673 0.775000 -10.100000
v 2.635778 0.521760 -14.900000
v 2.635778 0.521760 -10.100000
v 2.600000 0.250000 -14.900000
v 2.600000 0.250000 -10.100000
v 2.635778 -0.021760 -14.900000
v 2.635778 -0.021760 -10.100000
v 2.740673 -0.275000 -14.900000
v 2.740673 -0.275000 -10.100000
v 2.907538 -0.492462 -14.900000
v 2.907538 -0.492462 -10.100000
v 3.125000 -0.659327 -14.900000
v 3.125000 -0.659327 -10.100000
v 3.378240 -0.764222 -14.900000
v 3.378240 -0.764222 -10.100000
v 3.650000 -0.800000 -14.900000
v 3.650000 -0.800000 -10.100000
v 3.921760 -0.764222 -14.900000
v 3.921760 -0.764222 -10.100000
v 4.175000 -0.659327 -14.900000
v 4.175000 -0.659327 -10.100000
v 4.392462 -0.492462 -14.900000
v 4.392462 -0.492462 -10.100000
v 4.559327 -0.275000 -14.900000
v 4.559327 -0.275000 -10.100000
v 4.664222 -0.021760 -14.900000
v 4.664222 -0.021760 -10.100000
v 4.930000 0.250000 -15.275000
v 4.930000 0.250000 -14.825000
v 4.886385 0.581288 -15.275000
v 4.886385 0.581288 -14.825000
v 4.758513 0.890000 -15.275000
v 4.758513 0.890000 -14.825000
v 4.555097 1.155097 -15.275000
v 4.555097 1.155097 -14.825000
v 4.290000 1.358513 -15.275000
v 4.290000 1.358513 -14.825000
v 3.981288 1.486385 -15.275000
v 3.981288 1.486385 -14.825000
v 3.650000 1.530000 -15.275000
v 3.650000 1.530000 -14.825000
v 3.318712 1.486385 -15.275000
v 3.318712 1.486385 -14.825000
v 3.010000 1.358513 -15.275000
v 3.010000 1.358513 -14.825000
v 2.744903 1.155097 -15.275000
v 2.744903 1.155097 -14.825000
v 2.541487 0.890000 -15.275000
v 2.541487 0.890000 -14.825000
v 2.413615 0.581288 -15.275000
v 2.413615 0.581288 -14.825000
v 2.370000 0.250000 -15.275000
v 2.370000 0.250000 -14.825000
v 2.413615 -0.081288 -15.275000
v 2.413615 -0.081288 -14.825000
v 2.541487 -0.390000 -15.275000
v 2.541487 -0.390000 -14.825000
v 2.744903 -0.655097 -15.275000
v 2.744903 -0.655097 -14.825000
v 3.010000 -0.858513 -15.275000
v 3.010000 -0.858513 -14.825000
v 3.318712 -0.986385 -15.275000
v 3.318712 -0.986385 -14.825000
v 3.650000 -1.030000 -15.275000
v 3.650000 -1.030000 -14.825000
v 3.981288 -0.986385 -15.275000
v 3.981288 -0.986385 -14.825000
v 4.290000 -0.858513 -15.275000
v 4.290000 -0.858513 -14.825000
v 4.555097 -0.655097 -15.275000
v 4.555097 -0.655097 -14.825000
v 4.758513 -0.390000 -15.275000
v 4.758513 -0.390000 -14.825000
v 4.886385 -0.081288 -15.275000
v 4.886385 -0.081288 -14.825000
v -5.625000 -0.850000 0.200000
v -5.075000 -0.850000 0.200000
v -5.625000 -0.884074 0.458819
v -5.075000 -0.884074 0.458819
v -5.625000 -0.983975 0.700000
v -5.075000 -0.983975 0.700000
v -5.625000 -1.142893 0.907107
v -5.075000 -1.142893 0.907107
v -5.625000 -1.350000 1.066025
v -5.075000 -1.350000 1.066025
v -5.625000 -1.591181 1.165926
v -5.075000 -1.591181 1.165926
v -5.625000 -1.850000 1.200000
v -5.075000 -1.850000 1.200000
v -5.625000 -2.108819 1.165926
v -5.075000 -2.108819 1.165926
v -5.625000 -2.350000 1.066025
v -5.075000 -2.350000 1.066025
v -5.625000 -2.557107 0.907107
v -5.075000 -2.557107 0.907107
v -5.625000 -2.716025 0.700000
v -5.075000 -2.716025 0.700000
v -5.625000 -2.815926 0.458819
v -5.075000 -2.815926 0.458819
v -5.625000 -2.850000 0.200000
v -5.075000 -2.850000 0.200000
v -5.625000 -2.815926 -0.058819
v -5.075000 -2.815926 -0.058819
v -5.625000 -2.716025 -0.300000
v -5.075000 -2.716025 -0.300000
v -5.625000 -2.557107 -0.507107
v -5.075000 -2.557107 -0.507107
v -5.625000 -2.350000 -0.666025
v -5.075000 -2.350000 -0.666025
v -5.625000 -2.108819 -0.765926
v -5.075000 -2.108819 -0.765926
v -5.625000 -1.850000 -0.800000
v -5.075000 -1.850000 -0.800000
v -5.625000 -1.591181 -0.765926
v -5.075000 -1.591181 -0.765926
v -5.625000 -1.350000 -0.666025
v -5.075000 -1.350000 -0.666025
v -5.625000 -1.142893 -0.507107
v -5.075000 -1.142893 -0.507107
v -5.625000 -0.983975 -0.300000
v -5.075000 -0.983975 -0.300000
v -5.625000 -0.884074 -0.058819
v -5.075000 -0.884074 -0.058819
v -5.180000 -0.700000 0.200000
v -5.000000 -0.700000 0.200000
v -5.180000 -0.739185 0.497642
v -5.000000 -0.739185 0.497642
v -5.180000 -0.854071 0.775000
v -5.000000 -0.854071 0.775000
v -5.180000 -1.036827 1.013173
v -5.000000 -1.036827 1.013173
v -5.180000 -1.275000 1.195929
v -5.000000 -1.275000 1.195929
v -5.180000 -1.552358 1.310815
v -5.000000 -1.552358 1.310815
v -5.180000 -1.850000 1.350000
v -5.000000 -1.850000 1.350000
v -5.180000 -2.147642 1.310815
v -5.000000 -2.147642 1.310815
v -5.180000 -2.425000 1.195929
v -5.000000 -2.425000 1.195929
v -5.180000 -2.663173 1.013173
v -5.000000 -2.663173 1.013173
v -5.180000 -2.845929 0.775000
v -5.000000 -2.845929 0.775000
v -5.180000 -2.960815 0.497642
v -5.000000 -2.960815 0.497642
v -5.180000 -3.000000 0.200000
v -5.000000 -3.000000 0.200000
v -5.180000 -2.960815 -0.097642
v -5.000000 -2.960815 -0.097642
v -5.180000 -2.845929 -0.375000
v -5.000000 -2.845929 -0.375000
v -5.180000 -2.663173 -0.613173
v -5.000000 -2.663173 -0.613173
v -5.180000 -2.425000 -0.795929
v -5.000000 -2.425000 -0.795929
v -5.180000 -2.147642 -0.910815
v -5.000000 -2.147642 -0.910815
v -5.180000 -1.850000 -0.950000
v -5.000000 -1.850000 -0.950000
v -5.180000 -1.552358 -0.910815
v -5.000000 -1.552358 -0.910815
v -5.180000 -1.275000 -0.795929
v -5.000000 -1.275000 -0.795929
v -5.180000 -1.036827 -0.613173
v -5.000000 -1.036827 -0.613173
v -5.180000 -0.854071 -0.375000
v -5.000000 -0.854071 -0.375000
v -5.180000 -0.739185 -0.097642
v -5.000000 -0.739185 -0.097642
v 5.075000 -0.850000 0.200000
v 5.625000 -0.850000 0.200000
v 5.075000 -0.884074 0.458819
v 5.625000 -0.884074 0.458819
v 5.075000 -0.983975 0.700000
v 5.625000 -0.983975 0.700000
v 5.075000 -1.142893 0.907107
v 5.625000 -1.142893 0.907107
v 5.075000 -1.350000 1.066025
v 5.625000 -1.350000 1.066025
v 5.075000 -1.591181 1.165926
v 5.625000 -1.591181 1.165926
v 5.075000 -1.850000 1.200000
v 5.625000 -1.850000 1.200000
v 5.075000 -2.108819 1.165926
v 5.625000 -2.108819 1.165926
v 5.075000 -2.350000 1.066025
v 5.625000 -2.350000 1.066025
v 5.075000 -2.557107 0.907107
v 5.625000 -2.557107 0.907107
v 5.075000 -2.716025 0.700000
v 5.625000 -2.716025 0.700000
v 5.075000 -2.815926 0.458819
v 5.625000 -2.815926 0.458819
v 5.075000 -2.850000 0.200000
v 5.625000 -2.850000 0.200000
v 5.075000 -2.815926 -0.058819
v 5.625000 -2.815926 -0.058819
v 5.075000 -2.716025 -0.300000
v 5.625000 -2.716025 -0.300000
v 5.075000 -2.557107 -0.507107
v 5.625000 -2.557107 -0.507107
v 5.075000 -2.350000 -0.666025
v 5.625000 -2.350000 -0.666025
v 5.075000 -2.108819 -0.765926
v 5.625000 -2.108819 -0.765926
v 5.075000 -1.850000 -0.800000
v 5.625000 -1.850000 -0.800000
v 5.075000 -1.591181 -0.765926
v 5.625000 -1.591181 -0.765926
v 5.075000 -1.350000 -0.666025
v 5.625000 -1.350000 -0.666025
v 5.075000 -1.142893 -0.507107
v 5.625000 -1.142893 -0.507107
v 5.075000 -0.983975 -0.300000
v 5.625000 -0.983975 -0.300000
v 5.075000 -0.884074 -0.058819
v 5.625000 -0.884074 -0.058819
v 5.000000 -0.700000 0.200000
v 5.180000 -0.700000 0.200000
v 5.000000 -0.739185 0.497642
v 5.180000 -0.739185 0.497642
v 5.000000 -0.854071 0.775000
v 5.180000 -0.854071 0.775000
v 5.000000 -1.036827 1.013173
v 5.180000 -1.036827 1.013173
v 5.000000 -1.275000 1.195929
v 5.180000 -1.275000 1.195929
v 5.000000 -1.552358 1.310815
v 5.180000 -1.552358 1.310815
v 5.000000 -1.850000 1.350000
v 5.180000 -1.850000 1.350000
v 5.000000 -2.147642 1.310815
v 5.180000 -2.147642 1.310815
v 5.000000 -2.425000 1.195929
v 5.180000 -2.425000 1.195929
v 5.000000 -2.663173 1.013173
v 5.180000 -2.663173 1.013173
v 5.000000 -2.845929 0.775000
v 5.180000 -2.845929 0.775000
v 5.000000 -2.960815 0.497642
v 5.180000 -2.960815 0.497642
v 5.000000 -3.000000 0.200000
v 5.180000 -3.000000 0.200000
v 5.000000 -2.960815 -0.097642
v 5.180000 -2.960815 -0.097642
v 5.000000 -2.845929 -0.375000
v 5.180000 -2.845929 -0.375000
v 5.000000 -2.663173 -0.613173
v 5.180000 -2.663173 -0.613173
v 5.000000 -2.425000 -0.795929
v 5.180000 -2.425000 -0.795929
v 5.000000 -2.147642 -0.910815
v 5.180000 -2.147642 -0.910815
v 5.000000 -1.850000 -0.950000
v 5.180000 -1.850000 -0.950000
v 5.000000 -1.552358 -0.910815
v 5.180000 -1.552358 -0.910815
v 5.000000 -1.275000 -0.795929
v 5.180000 -1.275000 -0.795929
v 5.000000 -1.036827 -0.613173
v 5.180000 -1.036827 -0.613173
v 5.000000 -0.854071 -0.375000
v 5.180000 -0.854071 -0.375000
v 5.000000 -0.739185 -0.097642
v 5.180000 -0.739185 -0.097642
v -2.040000 -3.700000 -5.000000
v -1.860000 -3.700000 -5.000000
v -1.860000 -3.540000 -5.000000
v -2.040000 -3.540000 -5.000000
v -2.040000 -3.700000 -0.300000
v -1.860000 -3.700000 -0.300000
v -1.860000 -3.540000 -0.300000
v -2.040000 -3.540000 -0.300000
v 1.860000 -3.700000 -5.000000
v 2.040000 -3.700000 -5.000000
v 2.040000 -3.540000 -5.000000
v 1.860000 -3.540000 -5.000000
v 1.860000 -3.700000 -0.300000
v 2.040000 -3.700000 -0.300000
v 2.040000 -3.540000 -0.300000
v 1.860000 -3.540000 -0.300000
v -2.030000 -3.700000 -0.390000
v 2.030000 -3.700000 -0.390000
v 2.030000 -3.540000 -0.390000
v -2.030000 -3.540000 -0.390000
v -2.030000 -3.700000 -0.210000
v 2.030000 -3.700000 -0.210000
v 2.030000 -3.540000 -0.210000
v -2.030000 -3.540000 -0.210000
v -2.030000 -3.700000 -5.090000
v 2.030000 -3.700000 -5.090000
v 2.030000 -3.540000 -5.090000
v -2.030000 -3.540000 -5.090000
v -2.030000 -3.700000 -4.910000
v 2.030000 -3.700000 -4.910000
v 2.030000 -3.540000 -4.910000
v -2.030000 -3.540000 -4.910000
v -1.831500 -3.720000 -4.900000
v -0.018500 -3.720000 -4.900000
v -0.018500 -3.620000 -4.900000
v -1.831500 -3.620000 -4.900000
v -1.831500 -3.720000 -0.400000
v -0.018500 -3.720000 -0.400000
v -0.018500 -3.620000 -0.400000
v -1.831500 -3.620000 -0.400000
v 0.018500 -3.720000 -4.900000
v 1.831500 -3.720000 -4.900000
v 1.831500 -3.620000 -4.900000
v 0.018500 -3.620000 -4.900000
v 0.018500 -3.720000 -0.400000
v 1.831500 -3.720000 -0.400000
v 1.831500 -3.620000 -0.400000
v 0.018500 -3.620000 -0.400000
v -0.060000 -3.770000 -4.900000
v 0.060000 -3.770000 -4.900000
v 0.060000 -3.690000 -4.900000
v -0.060000 -3.690000 -4.900000
v -0.060000 -3.770000 -0.400000
v 0.060000 -3.770000 -0.400000
v 0.060000 -3.690000 -0.400000
v -0.060000 -3.690000 -0.400000
v -1.700000 -3.890000 -6.325000
v 1.700000 -3.890000 -6.325000
v 1.700000 -3.710000 -6.325000
v -1.700000 -3.710000 -6.325000
v -1.700000 -3.890000 -3.575000
v 1.700000 -3.890000 -3.575000
v 1.700000 -3.710000 -3.575000
v -1.700000 -3.710000 -3.575000
v -4.125000 -2.830000 6.475000
v -2.975000 -2.830000 6.475000
v -2.975000 -2.510000 6.475000
v -4.125000 -2.510000 6.475000
v -4.125000 -2.830000 7.925000
v -2.975000 -2.830000 7.925000
v -2.975000 -2.510000 7.925000
v -4.125000 -2.510000 7.925000
v -3.543138 -2.720000 7.090214
v -4.343138 -4.100000 7.040214
v -3.502628 -2.743972 7.103661
v -4.302628 -4.123972 7.053661
v -3.471500 -2.763195 7.136189
v -4.271500 -4.143195 7.086189
v -3.455920 -2.773864 7.181355
v -4.255920 -4.153864 7.131355
v -3.458974 -2.773864 7.230214
v -4.258974 -4.153864 7.180214
v -3.480056 -2.763195 7.273089
v -4.280056 -4.143195 7.223089
v -3.514992 -2.743972 7.301488
v -4.314992 -4.123972 7.251488
v -3.556862 -2.720000 7.309786
v -4.356862 -4.100000 7.259786
v -3.597372 -2.696028 7.296339
v -4.397372 -4.076028 7.246339
v -3.628500 -2.676805 7.263811
v -4.428500 -4.056805 7.213811
v -3.644080 -2.666136 7.218645
v -4.444080 -4.046136 7.168645
v -3.641026 -2.666136 7.169786
v -4.441026 -4.046136 7.119786
v -3.619944 -2.676805 7.126911
v -4.419944 -4.056805 7.076911
v -3.585008 -2.696028 7.098512
v -4.385008 -4.076028 7.048512
v -3.026000 -2.640000 7.485417
v -3.923000 -3.410000 7.110417
v -3.009569 -2.667437 7.502451
v -3.906569 -3.437437 7.127451
v -3.004775 -2.687523 7.532226
v -3.901775 -3.457523 7.157226
v -3.012903 -2.694875 7.566763
v -3.909903 -3.464875 7.191763
v -3.031775 -2.687523 7.596809
v -3.928775 -3.457523 7.221809
v -3.056334 -2.667437 7.614312
v -3.953334 -3.437437 7.239312
v -3.080000 -2.640000 7.614583
v -3.977000 -3.410000 7.239583
v -3.096431 -2.612563 7.597549
v -3.993431 -3.382563 7.222549
v -3.101225 -2.592477 7.567774
v -3.998225 -3.362477 7.192774
v -3.093097 -2.585125 7.533237
v -3.990097 -3.355125 7.158237
v -3.074225 -2.592477 7.503191
v -3.971225 -3.362477 7.128191
v -3.049666 -2.612563 7.485688
v -3.946666 -3.382563 7.110688
v -4.725000 -4.280000 6.625000
v -3.975000 -4.280000 6.625000
v -3.975000 -4.120000 6.625000
v -4.725000 -4.120000 6.625000
v -4.725000 -4.280000 7.675000
v -3.975000 -4.280000 7.675000
v -3.975000 -4.120000 7.675000
v -4.725000 -4.120000 7.675000
v 2.975000 -2.830000 6.475000
v 4.125000 -2.830000 6.475000
v 4.125000 -2.510000 6.475000
v 2.975000 -2.510000 6.475000
v 2.975000 -2.830000 7.925000
v 4.125000 -2.830000 7.925000
v 4.125000 -2.510000 7.925000
v 2.975000 -2.510000 7.925000
v 3.556862 -2.720000 7.309786
v 4.356862 -4.100000 7.259786
v 3.514992 -2.743972 7.301488
v 4.314992 -4.123972 7.251488
v 3.480056 -2.763195 7.273089
v 4.280056 -4.143195 7.223089
v 3.458974 -2.773864 7.230214
v 4.258974 -4.153864 7.180214
v 3.455920 -2.773864 7.181355
v 4.255920 -4.153864 7.131355
v 3.471500 -2.763195 7.136189
v 4.271500 -4.143195 7.086189
v 3.502628 -2.743972 7.103661
v 4.302628 -4.123972 7.053661
v 3.543138 -2.720000 7.090214
v 4.343138 -4.100000 7.040214
v 3.585008 -2.696028 7.098512
v 4.385008 -4.076028 7.048512
v 3.619944 -2.676805 7.126911
v 4.419944 -4.056805 7.076911
v 3.641026 -2.666136 7.169786
v 4.441026 -4.046136 7.119786
v 3.644080 -2.666136 7.218645
v 4.444080 -4.046136 7.168645
v 3.628500 -2.676805 7.263811
v 4.428500 -4.056805 7.213811
v 3.597372 -2.696028 7.296339
v 4.397372 -4.076028 7.246339
v 3.080000 -2.640000 7.614583
v 3.977000 -3.410000 7.239583
v 3.056334 -2.667437 7.614312
v 3.953334 -3.437437 7.239312
v 3.031775 -2.687523 7.596809
v 3.928775 -3.457523 7.221809
v 3.012903 -2.694875 7.566763
v 3.909903 -3.464875 7.191763
v 3.004775 -2.687523 7.532226
v 3.901775 -3.457523 7.157226
v 3.009569 -2.667437 7.502451
v 3.906569 -3.437437 7.127451
v 3.026000 -2.640000 7.485417
v 3.923000 -3.410000 7.110417
v 3.049666 -2.612563 7.485688
v 3.946666 -3.382563 7.110688
v 3.074225 -2.592477 7.503191
v 3.971225 -3.362477 7.128191
v 3.093097 -2.585125 7.533237
v 3.990097 -3.355125 7.158237
v 3.101225 -2.592477 7.567774
v 3.998225 -3.362477 7.192774
v 3.096431 -2.612563 7.597549
v 3.993431 -3.382563 7.222549
v 3.975000 -4.280000 6.625000
v 4.725000 -4.280000 6.625000
v 4.725000 -4.120000 6.625000
v 3.975000 -4.120000 6.625000
v 3.975000 -4.280000 7.675000
v 4.725000 -4.280000 7.675000
v 4.725000 -4.120000 7.675000
v 3.975000 -4.120000 7.675000
v -3.925000 -2.760000 -8.525000
v -2.775000 -2.760000 -8.525000
v -2.775000 -2.440000 -8.525000
v -3.925000 -2.440000 -8.525000
v -3.925000 -2.760000 -7.075000
v -2.775000 -2.760000 -7.075000
v -2.775000 -2.440000 -7.075000
v -3.925000 -2.440000 -7.075000
v -3.343138 -2.650000 -7.909786
v -4.143138 -4.020000 -7.959786
v -3.302704 -2.674102 -7.896344
v -4.102704 -4.044102 -7.946344
v -3.271637 -2.693430 -7.863820
v -4.071637 -4.063430 -7.913820
v -3.256090 -2.704157 -7.818656
v -4.056090 -4.074157 -7.868656
v -3.259144 -2.704157 -7.769796
v -4.059144 -4.074157 -7.819796
v -3.280193 -2.693430 -7.726919
v -4.080193 -4.063430 -7.776919
v -3.315068 -2.674102 -7.698517
v -4.115068 -4.044102 -7.748517
v -3.356862 -2.650000 -7.690214
v -4.156862 -4.020000 -7.740214
v -3.397296 -2.625898 -7.703656
v -4.197296 -3.995898 -7.753656
v -3.428363 -2.606570 -7.736180
v -4.228363 -3.976570 -7.786180
v -3.443910 -2.595843 -7.781344
v -4.243910 -3.965843 -7.831344
v -3.440856 -2.595843 -7.830204
v -4.240856 -3.965843 -7.880204
v -3.419807 -2.606570 -7.873081
v -4.219807 -3.976570 -7.923081
v -3.384932 -2.625898 -7.901483
v -4.184932 -3.995898 -7.951483
v -2.905521 -2.570000 -8.215565
v -3.774521 -3.335000 -7.890565
v -2.881380 -2.597004 -8.214580
v -3.750380 -3.362004 -7.889580
v -2.857138 -2.616772 -8.196292
v -3.726138 -3.381772 -7.871292
v -2.839289 -2.624008 -8.165599
v -3.708289 -3.389008 -7.840599
v -2.832617 -2.616772 -8.130727
v -3.701617 -3.381772 -7.805727
v -2.838909 -2.597004 -8.101019
v -3.707909 -3.362004 -7.776019
v -2.856479 -2.570000 -8.084435
v -3.725479 -3.335000 -7.759435
v -2.880620 -2.542996 -8.085420
v -3.749620 -3.307996 -7.760420
v -2.904862 -2.523228 -8.103708
v -3.773862 -3.288228 -7.778708
v -2.922711 -2.515992 -8.134401
v -3.791711 -3.280992 -7.809401
v -2.929383 -2.523228 -8.169273
v -3.798383 -3.288228 -7.844273
v -2.923091 -2.542996 -8.198981
v -3.792091 -3.307996 -7.873981
v -4.525000 -4.200000 -8.375000
v -3.775000 -4.200000 -8.375000
v -3.775000 -4.040000 -8.375000
v -4.525000 -4.040000 -8.375000
v -4.525000 -4.200000 -7.325000
v -3.775000 -4.200000 -7.325000
v -3.775000 -4.040000 -7.325000
v -4.525000 -4.040000 -7.325000
v 2.775000 -2.760000 -8.525000
v 3.925000 -2.760000 -8.525000
v 3.925000 -2.440000 -8.525000
v 2.775000 -2.440000 -8.525000
v 2.775000 -2.760000 -7.075000
v 3.925000 -2.760000 -7.075000
v 3.925000 -2.440000 -7.075000
v 2.775000 -2.440000 -7.075000
v 3.356862 -2.650000 -7.690214
v 4.156862 -4.020000 -7.740214
v 3.315068 -2.674102 -7.698517
v 4.115068 -4.044102 -7.748517
v 3.280193 -2.693430 -7.726919
v 4.080193 -4.063430 -7.776919
v 3.259144 -2.704157 -7.769796
v 4.059144 -4.074157 -7.819796
v 3.256090 -2.704157 -7.818656
v 4.056090 -4.074157 -7.868656
v 3.271637 -2.693430 -7.863820
v 4.071637 -4.063430 -7.913820
v 3.302704 -2.674102 -7.896344
v 4.102704 -4.044102 -7.946344
v 3.343138 -2.650000 -7.909786
v 4.143138 -4.020000 -7.959786
v 3.384932 -2.625898 -7.901483
v 4.184932 -3.995898 -7.951483
v 3.419807 -2.606570 -7.873081
v 4.219807 -3.976570 -7.923081
v 3.440856 -2.595843 -7.830204
v 4.240856 -3.965843 -7.880204
v 3.443910 -2.595843 -7.781344
v 4.243910 -3.965843 -7.831344
v 3.428363 -2.606570 -7.736180
v 4.228363 -3.976570 -7.786180
v 3.397296 -2.625898 -7.703656
v 4.197296 -3.995898 -7.753656
v 2.856479 -2.570000 -8.084435
v 3.725479 -3.335000 -7.759435
v 2.838909 -2.597004 -8.101019
v 3.707909 -3.362004 -7.776019
v 2.832617 -2.616772 -8.130727
v 3.701617 -3.381772 -7.805727
v 2.839289 -2.624008 -8.165599
v 3.708289 -3.389008 -7.840599
v 2.857138 -2.616772 -8.196292
v 3.726138 -3.381772 -7.871292
v 2.881380 -2.597004 -8.214580
v 3.750380 -3.362004 -7.889580
v 2.905521 -2.570000 -8.215565
v 3.774521 -3.335000 -7.890565
v 2.923091 -2.542996 -8.198981
v 3.792091 -3.307996 -7.873981
v 2.929383 -2.523228 -8.169273
v 3.798383 -3.288228 -7.844273
v 2.922711 -2.515992 -8.134401
v 3.791711 -3.280992 -7.809401
v 2.904862 -2.523228 -8.103708
v 3.773862 -3.288228 -7.778708
v 2.880620 -2.542996 -8.085420
v 3.749620 -3.307996 -7.760420
v 3.775000 -4.200000 -8.375000
v 4.525000 -4.200000 -8.375000
v 4.525000 -4.040000 -8.375000
v 3.775000 -4.040000 -8.375000
v 3.775000 -4.200000 -7.325000
v 4.525000 -4.200000 -7.325000
v 4.525000 -4.040000 -7.325000
v 3.775000 -4.040000 -7.325000
v -2.410000 1.730000 11.590000
v -2.090000 1.730000 11.590000
v -2.090000 1.970000 11.590000
v -2.410000 1.970000 11.590000
v -2.410000 1.730000 12.010000
v -2.090000 1.730000 12.010000
v -2.090000 1.970000 12.010000
v -2.410000 1.970000 12.010000
v 2.090000 1.730000 11.590000
v 2.410000 1.730000 11.590000
v 2.410000 1.970000 11.590000
v 2.090000 1.970000 11.590000
v 2.090000 1.730000 12.010000
v 2.410000 1.730000 12.010000
v 2.410000 1.970000 12.010000
v 2.090000 1.970000 12.010000
v -3.910000 1.080000 -12.810000
v -3.590000 1.080000 -12.810000
v -3.590000 1.320000 -12.810000
v -3.910000 1.320000 -12.810000
v -3.910000 1.080000 -12.390000
v -3.590000 1.080000 -12.390000
v -3.590000 1.320000 -12.390000
v -3.910000 1.320000 -12.390000
v 3.590000 1.080000 -12.810000
v 3.910000 1.080000 -12.810000
v 3.910000 1.320000 -12.810000
v 3.590000 1.320000 -12.810000
v 3.590000 1.080000 -12.390000
v 3.910000 1.080000 -12.390000
v 3.910000 1.320000 -12.390000
v 3.590000 1.320000 -12.390000

o STW_T01_Hull
usemtl Hull_Ochre
f 1 2 22 21
f 2 3 23 22
f 3 4 24 23
f 4 5 25 24
f 5 6 26 25
f 6 7 27 26
f 7 8 28 27
f 8 9 29 28
f 9 10 30 29
f 10 11 31 30
f 11 12 32 31
f 12 13 33 32
f 13 14 34 33
f 14 15 35 34
f 15 16 36 35
f 16 17 37 36
f 17 18 38 37
f 18 19 39 38
f 19 20 40 39
f 20 1 21 40
f 21 22 42 41
f 22 23 43 42
f 23 24 44 43
f 24 25 45 44
f 25 26 46 45
f 26 27 47 46
f 27 28 48 47
f 28 29 49 48
f 29 30 50 49
f 30 31 51 50
f 31 32 52 51
f 32 33 53 52
f 33 34 54 53
f 34 35 55 54
f 35 36 56 55
f 36 37 57 56
f 37 38 58 57
f 38 39 59 58
f 39 40 60 59
f 40 21 41 60
f 41 42 62 61
f 42 43 63 62
f 43 44 64 63
f 44 45 65 64
f 45 46 66 65
f 46 47 67 66
f 47 48 68 67
f 48 49 69 68
f 49 50 70 69
f 50 51 71 70
f 51 52 72 71
f 52 53 73 72
f 53 54 74 73
f 54 55 75 74
f 55 56 76 75
f 56 57 77 76
f 57 58 78 77
f 58 59 79 78
f 59 60 80 79
f 60 41 61 80
f 61 62 82 81
f 62 63 83 82
f 63 64 84 83
f 64 65 85 84
f 65 66 86 85
f 66 67 87 86
f 67 68 88 87
f 68 69 89 88
f 69 70 90 89
f 70 71 91 90
f 71 72 92 91
f 72 73 93 92
f 73 74 94 93
f 74 75 95 94
f 75 76 96 95
f 76 77 97 96
f 77 78 98 97
f 78 79 99 98
f 79 80 100 99
f 80 61 81 100
f 81 82 102 101
f 82 83 103 102
f 83 84 104 103
f 84 85 105 104
f 85 86 106 105
f 86 87 107 106
f 87 88 108 107
f 88 89 109 108
f 89 90 110 109
f 90 91 111 110
f 91 92 112 111
f 92 93 113 112
f 93 94 114 113
f 94 95 115 114
f 95 96 116 115
f 96 97 117 116
f 97 98 118 117
f 98 99 119 118
f 99 100 120 119
f 100 81 101 120
f 101 102 122 121
f 102 103 123 122
f 103 104 124 123
f 104 105 125 124
f 105 106 126 125
f 106 107 127 126
f 107 108 128 127
f 108 109 129 128
f 109 110 130 129
f 110 111 131 130
f 111 112 132 131
f 112 113 133 132
f 113 114 134 133
f 114 115 135 134
f 115 116 136 135
f 116 117 137 136
f 117 118 138 137
f 118 119 139 138
f 119 120 140 139
f 120 101 121 140
f 121 122 142 141
f 122 123 143 142
f 123 124 144 143
f 124 125 145 144
f 125 126 146 145
f 126 127 147 146
f 127 128 148 147
f 128 129 149 148
f 129 130 150 149
f 130 131 151 150
f 131 132 152 151
f 132 133 153 152
f 133 134 154 153
f 134 135 155 154
f 135 136 156 155
f 136 137 157 156
f 137 138 158 157
f 138 139 159 158
f 139 140 160 159
f 140 121 141 160
f 141 142 162 161
f 142 143 163 162
f 143 144 164 163
f 144 145 165 164
f 145 146 166 165
f 146 147 167 166
f 147 148 168 167
f 148 149 169 168
f 149 150 170 169
f 150 151 171 170
f 151 152 172 171
f 152 153 173 172
f 153 154 174 173
f 154 155 175 174
f 155 156 176 175
f 156 157 177 176
f 157 158 178 177
f 158 159 179 178
f 159 160 180 179
f 160 141 161 180
f 161 162 182 181
f 162 163 183 182
f 163 164 184 183
f 164 165 185 184
f 165 166 186 185
f 166 167 187 186
f 167 168 188 187
f 168 169 189 188
f 169 170 190 189
f 170 171 191 190
f 171 172 192 191
f 172 173 193 192
f 173 174 194 193
f 174 175 195 194
f 175 176 196 195
f 176 177 197 196
f 177 178 198 197
f 178 179 199 198
f 179 180 200 199
f 180 161 181 200
f 181 182 202 201
f 182 183 203 202
f 183 184 204 203
f 184 185 205 204
f 185 186 206 205
f 186 187 207 206
f 187 188 208 207
f 188 189 209 208
f 189 190 210 209
f 190 191 211 210
f 191 192 212 211
f 192 193 213 212
f 193 194 214 213
f 194 195 215 214
f 195 196 216 215
f 196 197 217 216
f 197 198 218 217
f 198 199 219 218
f 199 200 220 219
f 200 181 201 220
f 201 202 222 221
f 202 203 223 222
f 203 204 224 223
f 204 205 225 224
f 205 206 226 225
f 206 207 227 226
f 207 208 228 227
f 208 209 229 228
f 209 210 230 229
f 210 211 231 230
f 211 212 232 231
f 212 213 233 232
f 213 214 234 233
f 214 215 235 234
f 215 216 236 235
f 216 217 237 236
f 217 218 238 237
f 218 219 239 238
f 219 220 240 239
f 220 201 221 240
f 221 222 242 241
f 222 223 243 242
f 223 224 244 243
f 224 225 245 244
f 225 226 246 245
f 226 227 247 246
f 227 228 248 247
f 228 229 249 248
f 229 230 250 249
f 230 231 251 250
f 231 232 252 251
f 232 233 253 252
f 233 234 254 253
f 234 235 255 254
f 235 236 256 255
f 236 237 257 256
f 237 238 258 257
f 238 239 259 258
f 239 240 260 259
f 240 221 241 260
f 241 242 262 261
f 242 243 263 262
f 243 244 264 263
f 244 245 265 264
f 245 246 266 265
f 246 247 267 266
f 247 248 268 267
f 248 249 269 268
f 249 250 270 269
f 250 251 271 270
f 251 252 272 271
f 252 253 273 272
f 253 254 274 273
f 254 255 275 274
f 255 256 276 275
f 256 257 277 276
f 257 258 278 277
f 258 259 279 278
f 259 260 280 279
f 260 241 261 280
f 261 262 282 281
f 262 263 283 282
f 263 264 284 283
f 264 265 285 284
f 265 266 286 285
f 266 267 287 286
f 267 268 288 287
f 268 269 289 288
f 269 270 290 289
f 270 271 291 290
f 271 272 292 291
f 272 273 293 292
f 273 274 294 293
f 274 275 295 294
f 275 276 296 295
f 276 277 297 296
f 277 278 298 297
f 278 279 299 298
f 279 280 300 299
f 280 261 281 300
f 281 282 302 301
f 282 283 303 302
f 283 284 304 303
f 284 285 305 304
f 285 286 306 305
f 286 287 307 306
f 287 288 308 307
f 288 289 309 308
f 289 290 310 309
f 290 291 311 310
f 291 292 312 311
f 292 293 313 312
f 293 294 314 313
f 294 295 315 314
f 295 296 316 315
f 296 297 317 316
f 297 298 318 317
f 298 299 319 318
f 299 300 320 319
f 300 281 301 320
f 301 302 322 321
f 302 303 323 322
f 303 304 324 323
f 304 305 325 324
f 305 306 326 325
f 306 307 327 326
f 307 308 328 327
f 308 309 329 328
f 309 310 330 329
f 310 311 331 330
f 311 312 332 331
f 312 313 333 332
f 313 314 334 333
f 314 315 335 334
f 315 316 336 335
f 316 317 337 336
f 317 318 338 337
f 318 319 339 338
f 319 320 340 339
f 320 301 321 340
f 321 322 342 341
f 322 323 343 342
f 323 324 344 343
f 324 325 345 344
f 325 326 346 345
f 326 327 347 346
f 327 328 348 347
f 328 329 349 348
f 329 330 350 349
f 330 331 351 350
f 331 332 352 351
f 332 333 353 352
f 333 334 354 353
f 334 335 355 354
f 335 336 356 355
f 336 337 357 356
f 337 338 358 357
f 338 339 359 358
f 339 340 360 359
f 340 321 341 360
f 341 342 362 361
f 342 343 363 362
f 343 344 364 363
f 344 345 365 364
f 345 346 366 365
f 346 347 367 366
f 347 348 368 367
f 348 349 369 368
f 349 350 370 369
f 350 351 371 370
f 351 352 372 371
f 352 353 373 372
f 353 354 374 373
f 354 355 375 374
f 355 356 376 375
f 356 357 377 376
f 357 358 378 377
f 358 359 379 378
f 359 360 380 379
f 360 341 361 380
f 361 362 382 381
f 362 363 383 382
f 363 364 384 383
f 364 365 385 384
f 365 366 386 385
f 366 367 387 386
f 367 368 388 387
f 368 369 389 388
f 369 370 390 389
f 370 371 391 390
f 371 372 392 391
f 372 373 393 392
f 373 374 394 393
f 374 375 395 394
f 375 376 396 395
f 376 377 397 396
f 377 378 398 397
f 378 379 399 398
f 379 380 400 399
f 380 361 381 400
f 381 382 402 401
f 382 383 403 402
f 383 384 404 403
f 384 385 405 404
f 385 386 406 405
f 386 387 407 406
f 387 388 408 407
f 388 389 409 408
f 389 390 410 409
f 390 391 411 410
f 391 392 412 411
f 392 393 413 412
f 393 394 414 413
f 394 395 415 414
f 395 396 416 415
f 396 397 417 416
f 397 398 418 417
f 398 399 419 418
f 399 400 420 419
f 400 381 401 420
f 20 19 18 17 16 15 14 13 12 11 10 9 8 7 6 5 4 3 2 1
f 401 402 403 404 405 406 407 408 409 410 411 412 413 414 415 416 417 418 419 420

o STW_T01_Canopy
usemtl Canopy_Glass
f 421 422 438 437
f 422 423 439 438
f 423 424 440 439
f 424 425 441 440
f 425 426 442 441
f 426 427 443 442
f 427 428 444 443
f 428 429 445 444
f 429 430 446 445
f 430 431 447 446
f 431 432 448 447
f 432 433 449 448
f 433 434 450 449
f 434 435 451 450
f 435 436 452 451
f 436 421 437 452
f 437 438 454 453
f 438 439 455 454
f 439 440 456 455
f 440 441 457 456
f 441 442 458 457
f 442 443 459 458
f 443 444 460 459
f 444 445 461 460
f 445 446 462 461
f 446 447 463 462
f 447 448 464 463
f 448 449 465 464
f 449 450 466 465
f 450 451 467 466
f 451 452 468 467
f 452 437 453 468
f 453 454 470 469
f 454 455 471 470
f 455 456 472 471
f 456 457 473 472
f 457 458 474 473
f 458 459 475 474
f 459 460 476 475
f 460 461 477 476
f 461 462 478 477
f 462 463 479 478
f 463 464 480 479
f 464 465 481 480
f 465 466 482 481
f 466 467 483 482
f 467 468 484 483
f 468 453 469 484
f 469 470 486 485
f 470 471 487 486
f 471 472 488 487
f 472 473 489 488
f 473 474 490 489
f 474 475 491 490
f 475 476 492 491
f 476 477 493 492
f 477 478 494 493
f 478 479 495 494
f 479 480 496 495
f 480 481 497 496
f 481 482 498 497
f 482 483 499 498
f 483 484 500 499
f 484 469 485 500
f 436 435 434 433 432 431 430 429 428 427 426 425 424 423 422 421
f 485 486 487 488 489 490 491 492 493 494 495 496 497 498 499 500

o STW_T01_DrivePod_Port
usemtl Metal_Dark
f 501 503 504 502
f 503 505 506 504
f 505 507 508 506
f 507 509 510 508
f 509 511 512 510
f 511 513 514 512
f 513 515 516 514
f 515 517 518 516
f 517 519 520 518
f 519 521 522 520
f 521 523 524 522
f 523 525 526 524
f 525 527 528 526
f 527 529 530 528
f 529 531 532 530
f 531 533 534 532
f 533 535 536 534
f 535 537 538 536
f 537 539 540 538
f 539 541 542 540
f 541 543 544 542
f 543 545 546 544
f 545 547 548 546
f 547 501 502 548
f 547 545 543 541 539 537 535 533 531 529 527 525 523 521 519 517 515 513 511 509 507 505 503 501
f 502 504 506 508 510 512 514 516 518 520 522 524 526 528 530 532 534 536 538 540 542 544 546 548

o STW_T01_EngineBell_Port
usemtl Engine_Dark
f 549 551 552 550
f 551 553 554 552
f 553 555 556 554
f 555 557 558 556
f 557 559 560 558
f 559 561 562 560
f 561 563 564 562
f 563 565 566 564
f 565 567 568 566
f 567 569 570 568
f 569 571 572 570
f 571 573 574 572
f 573 575 576 574
f 575 577 578 576
f 577 579 580 578
f 579 581 582 580
f 581 583 584 582
f 583 585 586 584
f 585 587 588 586
f 587 589 590 588
f 589 591 592 590
f 591 593 594 592
f 593 595 596 594
f 595 549 550 596
f 595 593 591 589 587 585 583 581 579 577 575 573 571 569 567 565 563 561 559 557 555 553 551 549
f 550 552 554 556 558 560 562 564 566 568 570 572 574 576 578 580 582 584 586 588 590 592 594 596

o STW_T01_DrivePod_Starboard
usemtl Metal_Dark
f 597 599 600 598
f 599 601 602 600
f 601 603 604 602
f 603 605 606 604
f 605 607 608 606
f 607 609 610 608
f 609 611 612 610
f 611 613 614 612
f 613 615 616 614
f 615 617 618 616
f 617 619 620 618
f 619 621 622 620
f 621 623 624 622
f 623 625 626 624
f 625 627 628 626
f 627 629 630 628
f 629 631 632 630
f 631 633 634 632
f 633 635 636 634
f 635 637 638 636
f 637 639 640 638
f 639 641 642 640
f 641 643 644 642
f 643 597 598 644
f 643 641 639 637 635 633 631 629 627 625 623 621 619 617 615 613 611 609 607 605 603 601 599 597
f 598 600 602 604 606 608 610 612 614 616 618 620 622 624 626 628 630 632 634 636 638 640 642 644

o STW_T01_EngineBell_Starboard
usemtl Engine_Dark
f 645 647 648 646
f 647 649 650 648
f 649 651 652 650
f 651 653 654 652
f 653 655 656 654
f 655 657 658 656
f 657 659 660 658
f 659 661 662 660
f 661 663 664 662
f 663 665 666 664
f 665 667 668 666
f 667 669 670 668
f 669 671 672 670
f 671 673 674 672
f 673 675 676 674
f 675 677 678 676
f 677 679 680 678
f 679 681 682 680
f 681 683 684 682
f 683 685 686 684
f 685 687 688 686
f 687 689 690 688
f 689 691 692 690
f 691 645 646 692
f 691 689 687 685 683 681 679 677 675 673 671 669 667 665 663 661 659 657 655 653 651 649 647 645
f 646 648 650 652 654 656 658 660 662 664 666 668 670 672 674 676 678 680 682 684 686 688 690 692

o STW_T01_Dock_Port
usemtl Metal_Dark
f 693 695 696 694
f 695 697 698 696
f 697 699 700 698
f 699 701 702 700
f 701 703 704 702
f 703 705 706 704
f 705 707 708 706
f 707 709 710 708
f 709 711 712 710
f 711 713 714 712
f 713 715 716 714
f 715 717 718 716
f 717 719 720 718
f 719 721 722 720
f 721 723 724 722
f 723 725 726 724
f 725 727 728 726
f 727 729 730 728
f 729 731 732 730
f 731 733 734 732
f 733 735 736 734
f 735 737 738 736
f 737 739 740 738
f 739 693 694 740
f 739 737 735 733 731 729 727 725 723 721 719 717 715 713 711 709 707 705 703 701 699 697 695 693
f 694 696 698 700 702 704 706 708 710 712 714 716 718 720 722 724 726 728 730 732 734 736 738 740

o STW_T01_Dock_Port_Interface
usemtl Structural_Dark
f 741 743 744 742
f 743 745 746 744
f 745 747 748 746
f 747 749 750 748
f 749 751 752 750
f 751 753 754 752
f 753 755 756 754
f 755 757 758 756
f 757 759 760 758
f 759 761 762 760
f 761 763 764 762
f 763 765 766 764
f 765 767 768 766
f 767 769 770 768
f 769 771 772 770
f 771 773 774 772
f 773 775 776 774
f 775 777 778 776
f 777 779 780 778
f 779 781 782 780
f 781 783 784 782
f 783 785 786 784
f 785 787 788 786
f 787 741 742 788
f 787 785 783 781 779 777 775 773 771 769 767 765 763 761 759 757 755 753 751 749 747 745 743 741
f 742 744 746 748 750 752 754 756 758 760 762 764 766 768 770 772 774 776 778 780 782 784 786 788

o STW_T01_Dock_Starboard
usemtl Metal_Dark
f 789 791 792 790
f 791 793 794 792
f 793 795 796 794
f 795 797 798 796
f 797 799 800 798
f 799 801 802 800
f 801 803 804 802
f 803 805 806 804
f 805 807 808 806
f 807 809 810 808
f 809 811 812 810
f 811 813 814 812
f 813 815 816 814
f 815 817 818 816
f 817 819 820 818
f 819 821 822 820
f 821 823 824 822
f 823 825 826 824
f 825 827 828 826
f 827 829 830 828
f 829 831 832 830
f 831 833 834 832
f 833 835 836 834
f 835 789 790 836
f 835 833 831 829 827 825 823 821 819 817 815 813 811 809 807 805 803 801 799 797 795 793 791 789
f 790 792 794 796 798 800 802 804 806 808 810 812 814 816 818 820 822 824 826 828 830 832 834 836

o STW_T01_Dock_Starboard_Interface
usemtl Structural_Dark
f 837 839 840 838
f 839 841 842 840
f 841 843 844 842
f 843 845 846 844
f 845 847 848 846
f 847 849 850 848
f 849 851 852 850
f 851 853 854 852
f 853 855 856 854
f 855 857 858 856
f 857 859 860 858
f 859 861 862 860
f 861 863 864 862
f 863 865 866 864
f 865 867 868 866
f 867 869 870 868
f 869 871 872 870
f 871 873 874 872
f 873 875 876 874
f 875 877 878 876
f 877 879 880 878
f 879 881 882 880
f 881 883 884 882
f 883 837 838 884
f 883 881 879 877 875 873 871 869 867 865 863 861 859 857 855 853 851 849 847 845 843 841 839 837
f 838 840 842 844 846 848 850 852 854 856 858 860 862 864 866 868 870 872 874 876 878 880 882 884

o STW_T01_CargoDoor_Frame_Port
usemtl Structural_Dark
f 885 886 887 888
f 889 892 891 890
f 885 889 890 886
f 886 890 891 887
f 887 891 892 888
f 889 885 888 892

o STW_T01_CargoDoor_Frame_Starboard
usemtl Structural_Dark
f 893 894 895 896
f 897 900 899 898
f 893 897 898 894
f 894 898 899 895
f 895 899 900 896
f 897 893 896 900

o STW_T01_CargoDoor_Frame_Fwd
usemtl Structural_Dark
f 901 902 903 904
f 905 908 907 906
f 901 905 906 902
f 902 906 907 903
f 903 907 908 904
f 905 901 904 908

o STW_T01_CargoDoor_Frame_Aft
usemtl Structural_Dark
f 909 910 911 912
f 913 916 915 914
f 909 913 914 910
f 910 914 915 911
f 911 915 916 912
f 913 909 912 916

o STW_T01_CargoDoor_Port
usemtl Hull_Ochre
f 917 918 919 920
f 921 924 923 922
f 917 921 922 918
f 918 922 923 919
f 919 923 924 920
f 921 917 920 924

o STW_T01_CargoDoor_Starboard
usemtl Hull_Ochre
f 925 926 927 928
f 929 932 931 930
f 925 929 930 926
f 926 930 931 927
f 927 931 932 928
f 929 925 928 932

o STW_T01_CargoDoor_CenterRail
usemtl Metal_Dark
f 933 934 935 936
f 937 940 939 938
f 933 937 938 934
f 934 938 939 935
f 935 939 940 936
f 937 933 936 940

o STW_T01_CargoRamp
usemtl Hull_Ochre
f 941 942 943 944
f 945 948 947 946
f 941 945 946 942
f 942 946 947 943
f 943 947 948 944
f 945 941 944 948

o STW_T01_Gear_FL_Bay
usemtl Metal_Dark
f 949 950 951 952
f 953 956 955 954
f 949 953 954 950
f 950 954 955 951
f 951 955 956 952
f 953 949 952 956

o STW_T01_Gear_FL_MainStrut
usemtl Structural_Dark
f 957 959 960 958
f 959 961 962 960
f 961 963 964 962
f 963 965 966 964
f 965 967 968 966
f 967 969 970 968
f 969 971 972 970
f 971 973 974 972
f 973 975 976 974
f 975 977 978 976
f 977 979 980 978
f 979 981 982 980
f 981 983 984 982
f 983 957 958 984
f 983 981 979 977 975 973 971 969 967 965 963 961 959 957
f 958 960 962 964 966 968 970 972 974 976 978 980 982 984

o STW_T01_Gear_FL_Brace
usemtl Structural_Dark
f 985 987 988 986
f 987 989 990 988
f 989 991 992 990
f 991 993 994 992
f 993 995 996 994
f 995 997 998 996
f 997 999 1000 998
f 999 1001 1002 1000
f 1001 1003 1004 1002
f 1003 1005 1006 1004
f 1005 1007 1008 1006
f 1007 985 986 1008
f 1007 1005 1003 1001 999 997 995 993 991 989 987 985
f 986 988 990 992 994 996 998 1000 1002 1004 1006 1008

o STW_T01_Gear_FL_Foot
usemtl Metal_Dark
f 1009 1010 1011 1012
f 1013 1016 1015 1014
f 1009 1013 1014 1010
f 1010 1014 1015 1011
f 1011 1015 1016 1012
f 1013 1009 1012 1016

o STW_T01_Gear_FR_Bay
usemtl Metal_Dark
f 1017 1018 1019 1020
f 1021 1024 1023 1022
f 1017 1021 1022 1018
f 1018 1022 1023 1019
f 1019 1023 1024 1020
f 1021 1017 1020 1024

o STW_T01_Gear_FR_MainStrut
usemtl Structural_Dark
f 1025 1027 1028 1026
f 1027 1029 1030 1028
f 1029 1031 1032 1030
f 1031 1033 1034 1032
f 1033 1035 1036 1034
f 1035 1037 1038 1036
f 1037 1039 1040 1038
f 1039 1041 1042 1040
f 1041 1043 1044 1042
f 1043 1045 1046 1044
f 1045 1047 1048 1046
f 1047 1049 1050 1048
f 1049 1051 1052 1050
f 1051 1025 1026 1052
f 1051 1049 1047 1045 1043 1041 1039 1037 1035 1033 1031 1029 1027 1025
f 1026 1028 1030 1032 1034 1036 1038 1040 1042 1044 1046 1048 1050 1052

o STW_T01_Gear_FR_Brace
usemtl Structural_Dark
f 1053 1055 1056 1054
f 1055 1057 1058 1056
f 1057 1059 1060 1058
f 1059 1061 1062 1060
f 1061 1063 1064 1062
f 1063 1065 1066 1064
f 1065 1067 1068 1066
f 1067 1069 1070 1068
f 1069 1071 1072 1070
f 1071 1073 1074 1072
f 1073 1075 1076 1074
f 1075 1053 1054 1076
f 1075 1073 1071 1069 1067 1065 1063 1061 1059 1057 1055 1053
f 1054 1056 1058 1060 1062 1064 1066 1068 1070 1072 1074 1076

o STW_T01_Gear_FR_Foot
usemtl Metal_Dark
f 1077 1078 1079 1080
f 1081 1084 1083 1082
f 1077 1081 1082 1078
f 1078 1082 1083 1079
f 1079 1083 1084 1080
f 1081 1077 1080 1084

o STW_T01_Gear_RL_Bay
usemtl Metal_Dark
f 1085 1086 1087 1088
f 1089 1092 1091 1090
f 1085 1089 1090 1086
f 1086 1090 1091 1087
f 1087 1091 1092 1088
f 1089 1085 1088 1092

o STW_T01_Gear_RL_MainStrut
usemtl Structural_Dark
f 1093 1095 1096 1094
f 1095 1097 1098 1096
f 1097 1099 1100 1098
f 1099 1101 1102 1100
f 1101 1103 1104 1102
f 1103 1105 1106 1104
f 1105 1107 1108 1106
f 1107 1109 1110 1108
f 1109 1111 1112 1110
f 1111 1113 1114 1112
f 1113 1115 1116 1114
f 1115 1117 1118 1116
f 1117 1119 1120 1118
f 1119 1093 1094 1120
f 1119 1117 1115 1113 1111 1109 1107 1105 1103 1101 1099 1097 1095 1093
f 1094 1096 1098 1100 1102 1104 1106 1108 1110 1112 1114 1116 1118 1120

o STW_T01_Gear_RL_Brace
usemtl Structural_Dark
f 1121 1123 1124 1122
f 1123 1125 1126 1124
f 1125 1127 1128 1126
f 1127 1129 1130 1128
f 1129 1131 1132 1130
f 1131 1133 1134 1132
f 1133 1135 1136 1134
f 1135 1137 1138 1136
f 1137 1139 1140 1138
f 1139 1141 1142 1140
f 1141 1143 1144 1142
f 1143 1121 1122 1144
f 1143 1141 1139 1137 1135 1133 1131 1129 1127 1125 1123 1121
f 1122 1124 1126 1128 1130 1132 1134 1136 1138 1140 1142 1144

o STW_T01_Gear_RL_Foot
usemtl Metal_Dark
f 1145 1146 1147 1148
f 1149 1152 1151 1150
f 1145 1149 1150 1146
f 1146 1150 1151 1147
f 1147 1151 1152 1148
f 1149 1145 1148 1152

o STW_T01_Gear_RR_Bay
usemtl Metal_Dark
f 1153 1154 1155 1156
f 1157 1160 1159 1158
f 1153 1157 1158 1154
f 1154 1158 1159 1155
f 1155 1159 1160 1156
f 1157 1153 1156 1160

o STW_T01_Gear_RR_MainStrut
usemtl Structural_Dark
f 1161 1163 1164 1162
f 1163 1165 1166 1164
f 1165 1167 1168 1166
f 1167 1169 1170 1168
f 1169 1171 1172 1170
f 1171 1173 1174 1172
f 1173 1175 1176 1174
f 1175 1177 1178 1176
f 1177 1179 1180 1178
f 1179 1181 1182 1180
f 1181 1183 1184 1182
f 1183 1185 1186 1184
f 1185 1187 1188 1186
f 1187 1161 1162 1188
f 1187 1185 1183 1181 1179 1177 1175 1173 1171 1169 1167 1165 1163 1161
f 1162 1164 1166 1168 1170 1172 1174 1176 1178 1180 1182 1184 1186 1188

o STW_T01_Gear_RR_Brace
usemtl Structural_Dark
f 1189 1191 1192 1190
f 1191 1193 1194 1192
f 1193 1195 1196 1194
f 1195 1197 1198 1196
f 1197 1199 1200 1198
f 1199 1201 1202 1200
f 1201 1203 1204 1202
f 1203 1205 1206 1204
f 1205 1207 1208 1206
f 1207 1209 1210 1208
f 1209 1211 1212 1210
f 1211 1189 1190 1212
f 1211 1209 1207 1205 1203 1201 1199 1197 1195 1193 1191 1189
f 1190 1192 1194 1196 1198 1200 1202 1204 1206 1208 1210 1212

o STW_T01_Gear_RR_Foot
usemtl Metal_Dark
f 1213 1214 1215 1216
f 1217 1220 1219 1218
f 1213 1217 1218 1214
f 1214 1218 1219 1215
f 1215 1219 1220 1216
f 1217 1213 1216 1220

o STW_T01_RCS_Bow_Port
usemtl Structural_Dark
f 1221 1222 1223 1224
f 1225 1228 1227 1226
f 1221 1225 1226 1222
f 1222 1226 1227 1223
f 1223 1227 1228 1224
f 1225 1221 1224 1228

o STW_T01_RCS_Bow_Starboard
usemtl Structural_Dark
f 1229 1230 1231 1232
f 1233 1236 1235 1234
f 1229 1233 1234 1230
f 1230 1234 1235 1231
f 1231 1235 1236 1232
f 1233 1229 1232 1236

o STW_T01_RCS_Aft_Port
usemtl Structural_Dark
f 1237 1238 1239 1240
f 1241 1244 1243 1242
f 1237 1241 1242 1238
f 1238 1242 1243 1239
f 1239 1243 1244 1240
f 1241 1237 1240 1244

o STW_T01_RCS_Aft_Starboard
usemtl Structural_Dark
f 1245 1246 1247 1248
f 1249 1252 1251 1250
f 1245 1249 1250 1246
f 1246 1250 1251 1247
f 1247 1251 1252 1248
f 1249 1245 1248 1252
