# STW-T01 StingWasp Deck 2 — Cargo & Operations architectural model
# 1 OBJ unit = 1 metre
# Canonical exterior shell authority: 31.0m L x 10.5m B x 8.2m H
# Deck 2 geometry is inset and aligned to the same ship coordinate system as Deck 1
mtllib STW-T01_Deck2_CARGO_OPS_1to1.mtl
v -12.850000 -0.180000 0.000000
v -12.250000 -0.180000 -1.450000
v -10.800000 -0.180000 -2.750000
v -8.300000 -0.180000 -3.650000
v -4.200000 -0.180000 -4.150000
v 0.500000 -0.180000 -4.300000
v 5.300000 -0.180000 -4.200000
v 9.500000 -0.180000 -3.700000
v 12.000000 -0.180000 -2.700000
v 13.050000 -0.180000 -1.400000
v 13.150000 -0.180000 0.000000
v 13.050000 -0.180000 1.400000
v 12.000000 -0.180000 2.700000
v 9.500000 -0.180000 3.700000
v 5.300000 -0.180000 4.200000
v 0.500000 -0.180000 4.300000
v -4.200000 -0.180000 4.150000
v -8.300000 -0.180000 3.650000
v -10.800000 -0.180000 2.750000
v -12.250000 -0.180000 1.450000
v -12.850000 0.000000 0.000000
v -12.250000 0.000000 -1.450000
v -10.800000 0.000000 -2.750000
v -8.300000 0.000000 -3.650000
v -4.200000 0.000000 -4.150000
v 0.500000 0.000000 -4.300000
v 5.300000 0.000000 -4.200000
v 9.500000 0.000000 -3.700000
v 12.000000 0.000000 -2.700000
v 13.050000 0.000000 -1.400000
v 13.150000 0.000000 0.000000
v 13.050000 0.000000 1.400000
v 12.000000 0.000000 2.700000
v 9.500000 0.000000 3.700000
v 5.300000 0.000000 4.200000
v 0.500000 0.000000 4.300000
v -4.200000 0.000000 4.150000
v -8.300000 0.000000 3.650000
v -10.800000 0.000000 2.750000
v -12.250000 0.000000 1.450000
v -12.942402 0.000000 -0.038235
v -12.342402 0.000000 -1.488235
v -12.157598 0.000000 -1.411765
v -12.757598 0.000000 0.038235
v -12.942402 1.250000 -0.038235
v -12.342402 1.250000 -1.488235
v -12.157598 1.250000 -1.411765
v -12.757598 1.250000 0.038235
v -12.316755 0.000000 -1.524457
v -10.866755 0.000000 -2.824457
v -10.733245 0.000000 -2.675543
v -12.183245 0.000000 -1.375543
v -12.316755 1.250000 -1.524457
v -10.866755 1.250000 -2.824457
v -10.733245 1.250000 -2.675543
v -12.183245 1.250000 -1.375543
v -10.833872 0.000000 -2.844089
v -8.333872 0.000000 -3.744089
v -8.266128 0.000000 -3.555911
v -10.766128 0.000000 -2.655911
v -10.833872 1.250000 -2.844089
v -8.333872 1.250000 -3.744089
v -8.266128 1.250000 -3.555911
v -10.766128 1.250000 -2.655911
v -8.312105 0.000000 -3.749265
v -4.212105 0.000000 -4.249265
v -4.187895 0.000000 -4.050735
v -8.287895 0.000000 -3.550735
v -8.312105 1.250000 -3.749265
v -4.212105 1.250000 -4.249265
v -4.187895 1.250000 -4.050735
v -8.287895 1.250000 -3.550735
v -4.203190 0.000000 -4.249949
v 0.496810 0.000000 -4.399949
v 0.503190 0.000000 -4.200051
v -4.196810 0.000000 -4.050051
v -4.203190 1.250000 -4.249949
v 0.496810 1.250000 -4.399949
v 0.503190 1.250000 -4.200051
v -4.196810 1.250000 -4.050051
v 0.502083 0.000000 -4.399978
v 5.302083 0.000000 -4.299978
v 5.297917 0.000000 -4.100022
v 0.497917 0.000000 -4.200022
v 0.502083 1.250000 -4.399978
v 5.302083 1.250000 -4.299978
v 5.297917 1.250000 -4.100022
v 0.497917 1.250000 -4.200022
v 5.311821 0.000000 -4.299299
v 9.511821 0.000000 -3.799299
v 9.488179 0.000000 -3.600701
v 5.288179 0.000000 -4.100701
v 5.311821 1.250000 -4.299299
v 9.511821 1.250000 -3.799299
v 9.488179 1.250000 -3.600701
v 5.288179 1.250000 -4.100701
v 9.537139 0.000000 -3.792848
v 12.037139 0.000000 -2.792848
v 11.962861 0.000000 -2.607152
v 9.462861 0.000000 -3.607152
v 9.537139 1.250000 -3.792848
v 12.037139 1.250000 -2.792848
v 11.962861 1.250000 -2.607152
v 9.462861 1.250000 -3.607152
v 12.077794 0.000000 -2.762834
v 13.127794 0.000000 -1.462834
v 12.972206 0.000000 -1.337166
v 11.922206 0.000000 -2.637166
v 12.077794 1.250000 -2.762834
v 13.127794 1.250000 -1.462834
v 12.972206 1.250000 -1.337166
v 11.922206 1.250000 -2.637166
v 13.149746 0.000000 -1.407125
v 13.249746 0.000000 -0.007125
v 13.050254 0.000000 0.007125
v 12.950254 0.000000 -1.392875
v 13.149746 1.250000 -1.407125
v 13.249746 1.250000 -0.007125
v 13.050254 1.250000 0.007125
v 12.950254 1.250000 -1.392875
v 13.249746 0.000000 0.007125
v 13.149746 0.000000 1.407125
v 12.950254 0.000000 1.392875
v 13.050254 0.000000 -0.007125
v 13.249746 1.250000 0.007125
v 13.149746 1.250000 1.407125
v 12.950254 1.250000 1.392875
v 13.050254 1.250000 -0.007125
v 13.127794 0.000000 1.462834
v 12.077794 0.000000 2.762834
v 11.922206 0.000000 2.637166
v 12.972206 0.000000 1.337166
v 13.127794 1.250000 1.462834
v 12.077794 1.250000 2.762834
v 11.922206 1.250000 2.637166
v 12.972206 1.250000 1.337166
v 12.037139 0.000000 2.792848
v 9.537139 0.000000 3.792848
v 9.462861 0.000000 3.607152
v 11.962861 0.000000 2.607152
v 12.037139 1.250000 2.792848
v 9.537139 1.250000 3.792848
v 9.462861 1.250000 3.607152
v 11.962861 1.250000 2.607152
v 9.511821 0.000000 3.799299
v 5.311821 0.000000 4.299299
v 5.288179 0.000000 4.100701
v 9.488179 0.000000 3.600701
v 9.511821 1.250000 3.799299
v 5.311821 1.250000 4.299299
v 5.288179 1.250000 4.100701
v 9.488179 1.250000 3.600701
v 5.302083 0.000000 4.299978
v 0.502083 0.000000 4.399978
v 0.497917 0.000000 4.200022
v 5.297917 0.000000 4.100022
v 5.302083 1.250000 4.299978
v 0.502083 1.250000 4.399978
v 0.497917 1.250000 4.200022
v 5.297917 1.250000 4.100022
v 0.496810 0.000000 4.399949
v -4.203190 0.000000 4.249949
v -4.196810 0.000000 4.050051
v 0.503190 0.000000 4.200051
v 0.496810 1.250000 4.399949
v -4.203190 1.250000 4.249949
v -4.196810 1.250000 4.050051
v 0.503190 1.250000 4.200051
v -4.212105 0.000000 4.249265
v -8.312105 0.000000 3.749265
v -8.287895 0.000000 3.550735
v -4.187895 0.000000 4.050735
v -4.212105 1.250000 4.249265
v -8.312105 1.250000 3.749265
v -8.287895 1.250000 3.550735
v -4.187895 1.250000 4.050735
v -8.333872 0.000000 3.744089
v -10.833872 0.000000 2.844089
v -10.766128 0.000000 2.655911
v -8.266128 0.000000 3.555911
v -8.333872 1.250000 3.744089
v -10.833872 1.250000 2.844089
v -10.766128 1.250000 2.655911
v -8.266128 1.250000 3.555911
v -10.866755 0.000000 2.824457
v -12.316755 0.000000 1.524457
v -12.183245 0.000000 1.375543
v -10.733245 0.000000 2.675543
v -10.866755 1.250000 2.824457
v -12.316755 1.250000 1.524457
v -12.183245 1.250000 1.375543
v -10.733245 1.250000 2.675543
v -12.342402 0.000000 1.488235
v -12.942402 0.000000 0.038235
v -12.757598 0.000000 -0.038235
v -12.157598 0.000000 1.411765
v -12.342402 1.250000 1.488235
v -12.942402 1.250000 0.038235
v -12.757598 1.250000 -0.038235
v -12.157598 1.250000 1.411765
v -6.750000 0.000000 -2.750000
v -5.850000 0.000000 -3.250000
v 5.650000 0.000000 -3.250000
v 6.650000 0.000000 -2.550000
v 6.650000 0.000000 2.550000
v 5.650000 0.000000 3.250000
v -5.850000 0.000000 3.250000
v -6.750000 0.000000 2.750000
v -6.750000 0.055000 -2.750000
v -5.850000 0.055000 -3.250000
v 5.650000 0.055000 -3.250000
v 6.650000 0.055000 -2.550000
v 6.650000 0.055000 2.550000
v 5.650000 0.055000 3.250000
v -5.850000 0.055000 3.250000
v -6.750000 0.055000 2.750000
v -6.788851 0.000000 -2.819933
v -5.888851 0.000000 -3.319933
v -5.811149 0.000000 -3.180067
v -6.711149 0.000000 -2.680067
v -6.788851 1.050000 -2.819933
v -5.888851 1.050000 -3.319933
v -5.811149 1.050000 -3.180067
v -6.711149 1.050000 -2.680067
v -5.850000 0.000000 -3.330000
v 5.650000 0.000000 -3.330000
v 5.650000 0.000000 -3.170000
v -5.850000 0.000000 -3.170000
v -5.850000 1.050000 -3.330000
v 5.650000 1.050000 -3.330000
v 5.650000 1.050000 -3.170000
v -5.850000 1.050000 -3.170000
v 5.695877 0.000000 -3.315539
v 6.695877 0.000000 -2.615539
v 6.604123 0.000000 -2.484461
v 5.604123 0.000000 -3.184461
v 5.695877 1.050000 -3.315539
v 6.695877 1.050000 -2.615539
v 6.604123 1.050000 -2.484461
v 5.604123 1.050000 -3.184461
v 6.730000 0.000000 -2.550000
v 6.730000 0.000000 2.550000
v 6.570000 0.000000 2.550000
v 6.570000 0.000000 -2.550000
v 6.730000 1.050000 -2.550000
v 6.730000 1.050000 2.550000
v 6.570000 1.050000 2.550000
v 6.570000 1.050000 -2.550000
v 6.695877 0.000000 2.615539
v 5.695877 0.000000 3.315539
v 5.604123 0.000000 3.184461
v 6.604123 0.000000 2.484461
v 6.695877 1.050000 2.615539
v 5.695877 1.050000 3.315539
v 5.604123 1.050000 3.184461
v 6.604123 1.050000 2.484461
v 5.650000 0.000000 3.330000
v -5.850000 0.000000 3.330000
v -5.850000 0.000000 3.170000
v 5.650000 0.000000 3.170000
v 5.650000 1.050000 3.330000
v -5.850000 1.050000 3.330000
v -5.850000 1.050000 3.170000
v 5.650000 1.050000 3.170000
v -5.888851 0.000000 3.319933
v -6.788851 0.000000 2.819933
v -6.711149 0.000000 2.680067
v -5.811149 0.000000 3.180067
v -5.888851 1.050000 3.319933
v -6.788851 1.050000 2.819933
v -6.711149 1.050000 2.680067
v -5.811149 1.050000 3.180067
v -6.830000 0.000000 2.750000
v -6.830000 0.000000 -2.750000
v -6.670000 0.000000 -2.750000
v -6.670000 0.000000 2.750000
v -6.830000 1.050000 2.750000
v -6.830000 1.050000 -2.750000
v -6.670000 1.050000 -2.750000
v -6.670000 1.050000 2.750000
v -4.850000 0.000000 -2.500000
v -4.750000 0.000000 -2.500000
v -4.750000 0.090000 -2.500000
v -4.850000 0.090000 -2.500000
v -4.850000 0.000000 2.500000
v -4.750000 0.000000 2.500000
v -4.750000 0.090000 2.500000
v -4.850000 0.090000 2.500000
v -2.450000 0.000000 -2.500000
v -2.350000 0.000000 -2.500000
v -2.350000 0.090000 -2.500000
v -2.450000 0.090000 -2.500000
v -2.450000 0.000000 2.500000
v -2.350000 0.000000 2.500000
v -2.350000 0.090000 2.500000
v -2.450000 0.090000 2.500000
v -0.050000 0.000000 -2.500000
v 0.050000 0.000000 -2.500000
v 0.050000 0.090000 -2.500000
v -0.050000 0.090000 -2.500000
v -0.050000 0.000000 2.500000
v 0.050000 0.000000 2.500000
v 0.050000 0.090000 2.500000
v -0.050000 0.090000 2.500000
v 2.350000 0.000000 -2.500000
v 2.450000 0.000000 -2.500000
v 2.450000 0.090000 -2.500000
v 2.350000 0.090000 -2.500000
v 2.350000 0.000000 2.500000
v 2.450000 0.000000 2.500000
v 2.450000 0.090000 2.500000
v 2.350000 0.090000 2.500000
v 4.750000 0.000000 -2.500000
v 4.850000 0.000000 -2.500000
v 4.850000 0.090000 -2.500000
v 4.750000 0.090000 -2.500000
v 4.750000 0.000000 2.500000
v 4.850000 0.000000 2.500000
v 4.850000 0.090000 2.500000
v 4.750000 0.090000 2.500000
v -5.100000 0.000500 -2.150000
v 5.100000 0.000500 -2.150000
v 5.100000 0.095500 -2.150000
v -5.100000 0.095500 -2.150000
v -5.100000 0.000500 -2.050000
v 5.100000 0.000500 -2.050000
v 5.100000 0.095500 -2.050000
v -5.100000 0.095500 -2.050000
v -5.100000 0.000500 -0.050000
v 5.100000 0.000500 -0.050000
v 5.100000 0.095500 -0.050000
v -5.100000 0.095500 -0.050000
v -5.100000 0.000500 0.050000
v 5.100000 0.000500 0.050000
v 5.100000 0.095500 0.050000
v -5.100000 0.095500 0.050000
v -5.100000 0.000500 2.050000
v 5.100000 0.000500 2.050000
v 5.100000 0.095500 2.050000
v -5.100000 0.095500 2.050000
v -5.100000 0.000500 2.150000
v 5.100000 0.000500 2.150000
v 5.100000 0.095500 2.150000
v -5.100000 0.095500 2.150000
v -4.790000 0.030000 -2.190000
v -4.610000 0.030000 -2.190000
v -4.610000 0.130000 -2.190000
v -4.790000 0.130000 -2.190000
v -4.790000 0.030000 -2.010000
v -4.610000 0.030000 -2.010000
v -4.610000 0.130000 -2.010000
v -4.790000 0.130000 -2.010000
v -4.790000 0.030000 2.010000
v -4.610000 0.030000 2.010000
v -4.610000 0.130000 2.010000
v -4.790000 0.130000 2.010000
v -4.790000 0.030000 2.190000
v -4.610000 0.030000 2.190000
v -4.610000 0.130000 2.190000
v -4.790000 0.130000 2.190000
v -2.390000 0.030000 -2.190000
v -2.210000 0.030000 -2.190000
v -2.210000 0.130000 -2.190000
v -2.390000 0.130000 -2.190000
v -2.390000 0.030000 -2.010000
v -2.210000 0.030000 -2.010000
v -2.210000 0.130000 -2.010000
v -2.390000 0.130000 -2.010000
v -2.390000 0.030000 2.010000
v -2.210000 0.030000 2.010000
v -2.210000 0.130000 2.010000
v -2.390000 0.130000 2.010000
v -2.390000 0.030000 2.190000
v -2.210000 0.030000 2.190000
v -2.210000 0.130000 2.190000
v -2.390000 0.130000 2.190000
v -0.090000 0.030000 -2.190000
v 0.090000 0.030000 -2.190000
v 0.090000 0.130000 -2.190000
v -0.090000 0.130000 -2.190000
v -0.090000 0.030000 -2.010000
v 0.090000 0.030000 -2.010000
v 0.090000 0.130000 -2.010000
v -0.090000 0.130000 -2.010000
v -0.090000 0.030000 2.010000
v 0.090000 0.030000 2.010000
v 0.090000 0.130000 2.010000
v -0.090000 0.130000 2.010000
v -0.090000 0.030000 2.190000
v 0.090000 0.030000 2.190000
v 0.090000 0.130000 2.190000
v -0.090000 0.130000 2.190000
v 2.210000 0.030000 -2.190000
v 2.390000 0.030000 -2.190000
v 2.390000 0.130000 -2.190000
v 2.210000 0.130000 -2.190000
v 2.210000 0.030000 -2.010000
v 2.390000 0.030000 -2.010000
v 2.390000 0.130000 -2.010000
v 2.210000 0.130000 -2.010000
v 2.210000 0.030000 2.010000
v 2.390000 0.030000 2.010000
v 2.390000 0.130000 2.010000
v 2.210000 0.130000 2.010000
v 2.210000 0.030000 2.190000
v 2.390000 0.030000 2.190000
v 2.390000 0.130000 2.190000
v 2.210000 0.130000 2.190000
v 4.610000 0.030000 -2.190000
v 4.790000 0.030000 -2.190000
v 4.790000 0.130000 -2.190000
v 4.610000 0.130000 -2.190000
v 4.610000 0.030000 -2.010000
v 4.790000 0.030000 -2.010000
v 4.790000 0.130000 -2.010000
v 4.610000 0.130000 -2.010000
v 4.610000 0.030000 2.010000
v 4.790000 0.030000 2.010000
v 4.790000 0.130000 2.010000
v 4.610000 0.130000 2.010000
v 4.610000 0.030000 2.190000
v 4.790000 0.030000 2.190000
v 4.790000 0.130000 2.190000
v 4.610000 0.130000 2.190000
v -3.500000 0.010000 0.150000
v -1.300000 0.010000 0.150000
v -1.300000 0.190000 0.150000
v -3.500000 0.190000 0.150000
v -3.500000 0.010000 1.650000
v -1.300000 0.010000 1.650000
v -1.300000 0.190000 1.650000
v -3.500000 0.190000 1.650000
v -3.300000 0.100000 0.300000
v -1.500000 0.100000 0.300000
v -1.500000 1.000000 0.300000
v -3.300000 1.000000 0.300000
v -3.300000 0.100000 1.500000
v -1.500000 0.100000 1.500000
v -1.500000 1.000000 1.500000
v -3.300000 1.000000 1.500000
v 1.000000 0.010000 -1.550000
v 3.200000 0.010000 -1.550000
v 3.200000 0.190000 -1.550000
v 1.000000 0.190000 -1.550000
v 1.000000 0.010000 -0.050000
v 3.200000 0.010000 -0.050000
v 3.200000 0.190000 -0.050000
v 1.000000 0.190000 -0.050000
v 1.200000 0.100000 -1.400000
v 3.000000 0.100000 -1.400000
v 3.000000 1.000000 -1.400000
v 1.200000 1.000000 -1.400000
v 1.200000 0.100000 -0.200000
v 3.000000 0.100000 -0.200000
v 3.000000 1.000000 -0.200000
v 1.200000 1.000000 -0.200000
v -7.110000 0.000000 -3.450000
v -7.110000 0.000000 -1.000000
v -7.290000 0.000000 -1.000000
v -7.290000 0.000000 -3.450000
v -7.110000 1.220000 -3.450000
v -7.110000 1.220000 -1.000000
v -7.290000 1.220000 -1.000000
v -7.290000 1.220000 -3.450000
v -9.900000 0.000000 -2.900000
v -8.500000 0.000000 -2.900000
v -8.500000 0.880000 -2.900000
v -9.900000 0.880000 -2.900000
v -9.900000 0.000000 -2.400000
v -8.500000 0.000000 -2.400000
v -8.500000 0.880000 -2.400000
v -9.900000 0.880000 -2.400000
v -10.600000 0.000000 -2.050000
v -9.900000 0.000000 -2.050000
v -9.900000 1.100000 -2.050000
v -10.600000 1.100000 -2.050000
v -10.600000 0.000000 -1.250000
v -9.900000 0.000000 -1.250000
v -9.900000 1.100000 -1.250000
v -10.600000 1.100000 -1.250000
v -10.910000 0.000000 -3.450000
v -10.910000 0.000000 -1.200000
v -11.090000 0.000000 -1.200000
v -11.090000 0.000000 -3.450000
v -10.910000 1.220000 -3.450000
v -10.910000 1.220000 -1.200000
v -11.090000 1.220000 -1.200000
v -11.090000 1.220000 -3.450000
v -7.910000 0.000000 -3.450000
v -7.910000 0.000000 -1.200000
v -8.090000 0.000000 -1.200000
v -8.090000 0.000000 -3.450000
v -7.910000 1.220000 -3.450000
v -7.910000 1.220000 -1.200000
v -8.090000 1.220000 -1.200000
v -8.090000 1.220000 -3.450000
v -11.000000 0.000000 -1.290000
v -8.000000 0.000000 -1.290000
v -8.000000 0.000000 -1.110000
v -11.000000 0.000000 -1.110000
v -11.000000 1.220000 -1.290000
v -8.000000 1.220000 -1.290000
v -8.000000 1.220000 -1.110000
v -11.000000 1.220000 -1.110000
v -11.000000 0.000000 -3.350000
v -8.000000 0.000000 -3.350000
v -8.000000 0.060000 -3.350000
v -11.000000 0.060000 -3.350000
v -11.000000 0.000000 -1.250000
v -8.000000 0.000000 -1.250000
v -8.000000 0.060000 -1.250000
v -11.000000 0.060000 -1.250000
v -10.575000 0.000000 -3.175000
v -10.025000 0.000000 -3.175000
v -10.025000 1.100000 -3.175000
v -10.575000 1.100000 -3.175000
v -10.575000 0.000000 -2.625000
v -10.025000 0.000000 -2.625000
v -10.025000 1.100000 -2.625000
v -10.575000 1.100000 -2.625000
v -9.000000 0.000000 -3.080000
v -8.300000 0.000000 -3.080000
v -8.300000 0.860000 -3.080000
v -9.000000 0.860000 -3.080000
v -9.000000 0.000000 -2.620000
v -8.300000 0.000000 -2.620000
v -8.300000 0.860000 -2.620000
v -9.000000 0.860000 -2.620000
v -7.800000 0.000000 -3.925000
v -6.000000 0.000000 -3.925000
v -6.000000 0.900000 -3.925000
v -7.800000 0.900000 -3.925000
v -7.800000 0.000000 -3.375000
v -6.000000 0.000000 -3.375000
v -6.000000 0.900000 -3.375000
v -7.800000 0.900000 -3.375000
v 8.090000 0.000000 1.200000
v 8.090000 0.000000 3.450000
v 7.910000 0.000000 3.450000
v 7.910000 0.000000 1.200000
v 8.090000 1.220000 1.200000
v 8.090000 1.220000 3.450000
v 7.910000 1.220000 3.450000
v 7.910000 1.220000 1.200000
v 10.990000 0.000000 1.200000
v 10.990000 0.000000 3.450000
v 10.810000 0.000000 3.450000
v 10.810000 0.000000 1.200000
v 10.990000 1.220000 1.200000
v 10.990000 1.220000 3.450000
v 10.810000 1.220000 3.450000
v 10.810000 1.220000 1.200000
v 8.000000 0.000000 1.110000
v 10.900000 0.000000 1.110000
v 10.900000 0.000000 1.290000
v 8.000000 0.000000 1.290000
v 8.000000 1.220000 1.110000
v 10.900000 1.220000 1.110000
v 10.900000 1.220000 1.290000
v 8.000000 1.220000 1.290000
v 8.000000 0.000000 1.250000
v 10.900000 0.000000 1.250000
v 10.900000 0.060000 1.250000
v 8.000000 0.060000 1.250000
v 8.000000 0.000000 3.350000
v 10.900000 0.000000 3.350000
v 10.900000 0.060000 3.350000
v 8.000000 0.060000 3.350000
v 9.925000 0.000000 2.625000
v 10.475000 0.000000 2.625000
v 10.475000 1.100000 2.625000
v 9.925000 1.100000 2.625000
v 9.925000 0.000000 3.175000
v 10.475000 0.000000 3.175000
v 10.475000 1.100000 3.175000
v 9.925000 1.100000 3.175000
v 8.200000 0.000000 2.620000
v 8.900000 0.000000 2.620000
v 8.900000 0.860000 2.620000
v 8.200000 0.860000 2.620000
v 8.200000 0.000000 3.080000
v 8.900000 0.000000 3.080000
v 8.900000 0.860000 3.080000
v 8.200000 0.860000 3.080000
v 8.200000 0.000000 -1.100000
v 10.600000 0.000000 -1.100000
v 10.600000 0.120000 -1.100000
v 8.200000 0.120000 -1.100000
v 8.200000 0.000000 1.100000
v 10.600000 0.000000 1.100000
v 10.600000 0.120000 1.100000
v 8.200000 0.120000 1.100000
v 8.100000 0.070000 -1.070000
v 10.700000 0.070000 -1.070000
v 10.700000 0.190000 -1.070000
v 8.100000 0.190000 -1.070000
v 8.100000 0.070000 -0.930000
v 10.700000 0.070000 -0.930000
v 10.700000 0.190000 -0.930000
v 8.100000 0.190000 -0.930000
v 8.100000 0.070000 0.930000
v 10.700000 0.070000 0.930000
v 10.700000 0.190000 0.930000
v 8.100000 0.190000 0.930000
v 8.100000 0.070000 1.070000
v 10.700000 0.070000 1.070000
v 10.700000 0.190000 1.070000
v 8.100000 0.190000 1.070000
v 6.575000 0.000000 -0.325000
v 7.225000 0.000000 -0.325000
v 7.225000 1.000000 -0.325000
v 6.575000 1.000000 -0.325000
v 6.575000 0.000000 0.325000
v 7.225000 0.000000 0.325000
v 7.225000 1.000000 0.325000
v 6.575000 1.000000 0.325000
v -6.000000 0.970000 -0.080000
v 6.000000 0.970000 -0.080000
v 6.000000 1.130000 -0.080000
v -6.000000 1.130000 -0.080000
v -6.000000 0.970000 0.080000
v 6.000000 0.970000 0.080000
v 6.000000 1.130000 0.080000
v -6.000000 1.130000 0.080000
v 1.425000 0.680000 -0.375000
v 2.175000 0.680000 -0.375000
v 2.175000 1.180000 -0.375000
v 1.425000 1.180000 -0.375000
v 1.425000 0.680000 0.375000
v 2.175000 0.680000 0.375000
v 2.175000 1.180000 0.375000
v 1.425000 1.180000 0.375000
v 10.050000 0.000000 -1.800000
v 11.250000 0.000000 -1.800000
v 11.250000 0.860000 -1.800000
v 10.050000 0.860000 -1.800000
v 10.050000 0.000000 -1.300000
v 11.250000 0.000000 -1.300000
v 11.250000 0.860000 -1.300000
v 10.050000 0.860000 -1.300000
v 10.300000 0.000000 -2.825000
v 11.700000 0.000000 -2.825000
v 11.700000 0.560000 -2.825000
v 10.300000 0.560000 -2.825000
v 10.300000 0.000000 -2.275000
v 11.700000 0.000000 -2.275000
v 11.700000 0.560000 -2.275000
v 10.300000 0.560000 -2.275000
v -6.750000 0.000000 -4.040000
v 6.750000 0.000000 -4.040000
v 6.750000 0.050000 -4.040000
v -6.750000 0.050000 -4.040000
v -6.750000 0.000000 -3.260000
v 6.750000 0.000000 -3.260000
v 6.750000 0.050000 -3.260000
v -6.750000 0.050000 -3.260000
v -6.750000 0.000000 3.260000
v 6.750000 0.000000 3.260000
v 6.750000 0.050000 3.260000
v -6.750000 0.050000 3.260000
v -6.750000 0.000000 4.040000
v 6.750000 0.000000 4.040000
v 6.750000 0.050000 4.040000
v -6.750000 0.050000 4.040000
v -11.000000 0.000000 -3.350000
v -11.000000 0.000000 3.350000
v -11.200000 0.000000 3.350000
v -11.200000 0.000000 -3.350000
v -11.000000 1.250000 -3.350000
v -11.000000 1.250000 3.350000
v -11.200000 1.250000 3.350000
v -11.200000 1.250000 -3.350000
v 11.250000 0.000000 -3.350000
v 11.250000 0.000000 3.350000
v 11.050000 0.000000 3.350000
v 11.050000 0.000000 -3.350000
v 11.250000 1.250000 -3.350000
v 11.250000 1.250000 3.350000
v 11.050000 1.250000 3.350000
v 11.050000 1.250000 -3.350000

o STRUCTURE_Deck2Slab
usemtl Deck
f 20 19 18 17 16 15 14 13 12 11 10 9 8 7 6 5 4 3 2 1
f 21 22 23 24 25 26 27 28 29 30 31 32 33 34 35 36 37 38 39 40
f 1 2 22 21
f 2 3 23 22
f 3 4 24 23
f 4 5 25 24
f 5 6 26 25
f 6 7 27 26
f 7 8 28 27
f 8 9 29 28
f 9 10 30 29
f 10 11 31 30
f 11 12 32 31
f 12 13 33 32
f 13 14 34 33
f 14 15 35 34
f 15 16 36 35
f 16 17 37 36
f 17 18 38 37
f 18 19 39 38
f 19 20 40 39
f 20 1 21 40

o STRUCTURE_OuterBulkhead_00
usemtl Bulkhead
f 41 44 43 42
f 45 46 47 48
f 41 42 46 45
f 42 43 47 46
f 43 44 48 47
f 44 41 45 48

o STRUCTURE_OuterBulkhead_01
usemtl Bulkhead
f 49 52 51 50
f 53 54 55 56
f 49 50 54 53
f 50 51 55 54
f 51 52 56 55
f 52 49 53 56

o STRUCTURE_OuterBulkhead_02
usemtl Bulkhead
f 57 60 59 58
f 61 62 63 64
f 57 58 62 61
f 58 59 63 62
f 59 60 64 63
f 60 57 61 64

o STRUCTURE_OuterBulkhead_03
usemtl Bulkhead
f 65 68 67 66
f 69 70 71 72
f 65 66 70 69
f 66 67 71 70
f 67 68 72 71
f 68 65 69 72

o STRUCTURE_OuterBulkhead_04
usemtl Bulkhead
f 73 76 75 74
f 77 78 79 80
f 73 74 78 77
f 74 75 79 78
f 75 76 80 79
f 76 73 77 80

o STRUCTURE_OuterBulkhead_05
usemtl Bulkhead
f 81 84 83 82
f 85 86 87 88
f 81 82 86 85
f 82 83 87 86
f 83 84 88 87
f 84 81 85 88

o STRUCTURE_OuterBulkhead_06
usemtl Bulkhead
f 89 92 91 90
f 93 94 95 96
f 89 90 94 93
f 90 91 95 94
f 91 92 96 95
f 92 89 93 96

o STRUCTURE_OuterBulkhead_07
usemtl Bulkhead
f 97 100 99 98
f 101 102 103 104
f 97 98 102 101
f 98 99 103 102
f 99 100 104 103
f 100 97 101 104

o STRUCTURE_OuterBulkhead_08
usemtl Bulkhead
f 105 108 107 106
f 109 110 111 112
f 105 106 110 109
f 106 107 111 110
f 107 108 112 111
f 108 105 109 112

o STRUCTURE_OuterBulkhead_09
usemtl Bulkhead
f 113 116 115 114
f 117 118 119 120
f 113 114 118 117
f 114 115 119 118
f 115 116 120 119
f 116 113 117 120

o STRUCTURE_OuterBulkhead_10
usemtl Bulkhead
f 121 124 123 122
f 125 126 127 128
f 121 122 126 125
f 122 123 127 126
f 123 124 128 127
f 124 121 125 128

o STRUCTURE_OuterBulkhead_11
usemtl Bulkhead
f 129 132 131 130
f 133 134 135 136
f 129 130 134 133
f 130 131 135 134
f 131 132 136 135
f 132 129 133 136

o STRUCTURE_OuterBulkhead_12
usemtl Bulkhead
f 137 140 139 138
f 141 142 143 144
f 137 138 142 141
f 138 139 143 142
f 139 140 144 143
f 140 137 141 144

o STRUCTURE_OuterBulkhead_13
usemtl Bulkhead
f 145 148 147 146
f 149 150 151 152
f 145 146 150 149
f 146 147 151 150
f 147 148 152 151
f 148 145 149 152

o STRUCTURE_OuterBulkhead_14
usemtl Bulkhead
f 153 156 155 154
f 157 158 159 160
f 153 154 158 157
f 154 155 159 158
f 155 156 160 159
f 156 153 157 160

o STRUCTURE_OuterBulkhead_15
usemtl Bulkhead
f 161 164 163 162
f 165 166 167 168
f 161 162 166 165
f 162 163 167 166
f 163 164 168 167
f 164 161 165 168

o STRUCTURE_OuterBulkhead_16
usemtl Bulkhead
f 169 172 171 170
f 173 174 175 176
f 169 170 174 173
f 170 171 175 174
f 171 172 176 175
f 172 169 173 176

o STRUCTURE_OuterBulkhead_17
usemtl Bulkhead
f 177 180 179 178
f 181 182 183 184
f 177 178 182 181
f 178 179 183 182
f 179 180 184 183
f 180 177 181 184

o STRUCTURE_OuterBulkhead_18
usemtl Bulkhead
f 185 188 187 186
f 189 190 191 192
f 185 186 190 189
f 186 187 191 190
f 187 188 192 191
f 188 185 189 192

o STRUCTURE_OuterBulkhead_19
usemtl Bulkhead
f 193 196 195 194
f 197 198 199 200
f 193 194 198 197
f 194 195 199 198
f 195 196 200 199
f 196 193 197 200

o ROOM_01_MAIN_CARGO_HOLD_Floor
usemtl Deck
f 208 207 206 205 204 203 202 201
f 209 210 211 212 213 214 215 216
f 201 202 210 209
f 202 203 211 210
f 203 204 212 211
f 204 205 213 212
f 205 206 214 213
f 206 207 215 214
f 207 208 216 215
f 208 201 209 216

o ROOM_01_MAIN_CARGO_HOLD_Wall_00
usemtl CargoBulkhead
f 217 220 219 218
f 221 222 223 224
f 217 218 222 221
f 218 219 223 222
f 219 220 224 223
f 220 217 221 224

o ROOM_01_MAIN_CARGO_HOLD_Wall_01
usemtl CargoBulkhead
f 225 228 227 226
f 229 230 231 232
f 225 226 230 229
f 226 227 231 230
f 227 228 232 231
f 228 225 229 232

o ROOM_01_MAIN_CARGO_HOLD_Wall_02
usemtl CargoBulkhead
f 233 236 235 234
f 237 238 239 240
f 233 234 238 237
f 234 235 239 238
f 235 236 240 239
f 236 233 237 240

o ROOM_01_MAIN_CARGO_HOLD_Wall_03
usemtl CargoBulkhead
f 241 244 243 242
f 245 246 247 248
f 241 242 246 245
f 242 243 247 246
f 243 244 248 247
f 244 241 245 248

o ROOM_01_MAIN_CARGO_HOLD_Wall_04
usemtl CargoBulkhead
f 249 252 251 250
f 253 254 255 256
f 249 250 254 253
f 250 251 255 254
f 251 252 256 255
f 252 249 253 256

o ROOM_01_MAIN_CARGO_HOLD_Wall_05
usemtl CargoBulkhead
f 257 260 259 258
f 261 262 263 264
f 257 258 262 261
f 258 259 263 262
f 259 260 264 263
f 260 257 261 264

o ROOM_01_MAIN_CARGO_HOLD_Wall_06
usemtl CargoBulkhead
f 265 268 267 266
f 269 270 271 272
f 265 266 270 269
f 266 267 271 270
f 267 268 272 271
f 268 265 269 272

o ROOM_01_MAIN_CARGO_HOLD_Wall_07
usemtl CargoBulkhead
f 273 276 275 274
f 277 278 279 280
f 273 274 278 277
f 274 275 279 278
f 275 276 280 279
f 276 273 277 280

o ROOM_01_MAIN_CARGO_HOLD_FloorRail
usemtl Metal
f 281 282 283 284
f 285 288 287 286
f 281 285 286 282
f 282 286 287 283
f 283 287 288 284
f 285 281 284 288
f 289 290 291 292
f 293 296 295 294
f 289 293 294 290
f 290 294 295 291
f 291 295 296 292
f 293 289 292 296
f 297 298 299 300
f 301 304 303 302
f 297 301 302 298
f 298 302 303 299
f 299 303 304 300
f 301 297 300 304
f 305 306 307 308
f 309 312 311 310
f 305 309 310 306
f 306 310 311 307
f 307 311 312 308
f 309 305 308 312
f 313 314 315 316
f 317 320 319 318
f 313 317 318 314
f 314 318 319 315
f 315 319 320 316
f 317 313 316 320
f 321 322 323 324
f 325 328 327 326
f 321 325 326 322
f 322 326 327 323
f 323 327 328 324
f 325 321 324 328
f 329 330 331 332
f 333 336 335 334
f 329 333 334 330
f 330 334 335 331
f 331 335 336 332
f 333 329 332 336
f 337 338 339 340
f 341 344 343 342
f 337 341 342 338
f 338 342 343 339
f 339 343 344 340
f 341 337 340 344

o ROOM_01_MAIN_CARGO_HOLD_TieDown
usemtl Cargo
f 345 346 347 348
f 349 352 351 350
f 345 349 350 346
f 346 350 351 347
f 347 351 352 348
f 349 345 348 352
f 353 354 355 356
f 357 360 359 358
f 353 357 358 354
f 354 358 359 355
f 355 359 360 356
f 357 353 356 360
f 361 362 363 364
f 365 368 367 366
f 361 365 366 362
f 362 366 367 363
f 363 367 368 364
f 365 361 364 368
f 369 370 371 372
f 373 376 375 374
f 369 373 374 370
f 370 374 375 371
f 371 375 376 372
f 373 369 372 376
f 377 378 379 380
f 381 384 383 382
f 377 381 382 378
f 378 382 383 379
f 379 383 384 380
f 381 377 380 384
f 385 386 387 388
f 389 392 391 390
f 385 389 390 386
f 386 390 391 387
f 387 391 392 388
f 389 385 388 392
f 393 394 395 396
f 397 400 399 398
f 393 397 398 394
f 394 398 399 395
f 395 399 400 396
f 397 393 396 400
f 401 402 403 404
f 405 408 407 406
f 401 405 406 402
f 402 406 407 403
f 403 407 408 404
f 405 401 404 408
f 409 410 411 412
f 413 416 415 414
f 409 413 414 410
f 410 414 415 411
f 411 415 416 412
f 413 409 412 416
f 417 418 419 420
f 421 424 423 422
f 417 421 422 418
f 418 422 423 419
f 419 423 424 420
f 421 417 420 424

o ROOM_01_MAIN_CARGO_HOLD_Pallet
usemtl Cargo
f 425 426 427 428
f 429 432 431 430
f 425 429 430 426
f 426 430 431 427
f 427 431 432 428
f 429 425 428 432

o ROOM_01_MAIN_CARGO_HOLD_Crate
usemtl Cargo
f 433 434 435 436
f 437 440 439 438
f 433 437 438 434
f 434 438 439 435
f 435 439 440 436
f 437 433 436 440

o ROOM_01_MAIN_CARGO_HOLD_Pallet
usemtl Cargo
f 441 442 443 444
f 445 448 447 446
f 441 445 446 442
f 442 446 447 443
f 443 447 448 444
f 445 441 444 448

o ROOM_01_MAIN_CARGO_HOLD_Crate
usemtl Cargo
f 449 450 451 452
f 453 456 455 454
f 449 453 454 450
f 450 454 455 451
f 451 455 456 452
f 453 449 452 456

o ZONE_PORT_FWD_Aft
usemtl Bulkhead
f 457 460 459 458
f 461 462 463 464
f 457 458 462 461
f 458 459 463 462
f 459 460 464 463
f 460 457 461 464

o ZONE_PORT_FWD_ServiceConsole
usemtl Console
f 465 466 467 468
f 469 472 471 470
f 465 469 470 466
f 466 470 471 467
f 467 471 472 468
f 469 465 468 472

o ZONE_PORT_FWD_EquipmentRack
usemtl Machinery
f 473 474 475 476
f 477 480 479 478
f 473 477 478 474
f 474 478 479 475
f 475 479 480 476
f 477 473 476 480

o ROOM_02_PORT_AIRLOCK_Forward
usemtl Bulkhead
f 481 484 483 482
f 485 486 487 488
f 481 482 486 485
f 482 483 487 486
f 483 484 488 487
f 484 481 485 488

o ROOM_02_PORT_AIRLOCK_Aft
usemtl Bulkhead
f 489 492 491 490
f 493 494 495 496
f 489 490 494 493
f 490 491 495 494
f 491 492 496 495
f 492 489 493 496

o ROOM_02_PORT_AIRLOCK_Inner
usemtl Bulkhead
f 497 500 499 498
f 501 502 503 504
f 497 498 502 501
f 498 499 503 502
f 499 500 504 503
f 500 497 501 504

o ROOM_02_PORT_AIRLOCK_Floor
usemtl Deck
f 505 506 507 508
f 509 512 511 510
f 505 509 510 506
f 506 510 511 507
f 507 511 512 508
f 509 505 508 512

o ROOM_02_PORT_AIRLOCK_SuitRack
usemtl Fixture
f 513 514 515 516
f 517 520 519 518
f 513 517 518 514
f 514 518 519 515
f 515 519 520 516
f 517 513 516 520

o ROOM_02_PORT_AIRLOCK_Control
usemtl Console
f 521 522 523 524
f 525 528 527 526
f 521 525 526 522
f 522 526 527 523
f 523 527 528 524
f 525 521 524 528

o ROOM_04_EVA_LOCKER_Port
usemtl Fixture
f 529 530 531 532
f 533 536 535 534
f 529 533 534 530
f 530 534 535 531
f 531 535 536 532
f 533 529 532 536

o ROOM_03_STARBOARD_AIRLOCK_Forward
usemtl Bulkhead
f 537 540 539 538
f 541 542 543 544
f 537 538 542 541
f 538 539 543 542
f 539 540 544 543
f 540 537 541 544

o ROOM_03_STARBOARD_AIRLOCK_Aft
usemtl Bulkhead
f 545 548 547 546
f 549 550 551 552
f 545 546 550 549
f 546 547 551 550
f 547 548 552 551
f 548 545 549 552

o ROOM_03_STARBOARD_AIRLOCK_Inner
usemtl Bulkhead
f 553 556 555 554
f 557 558 559 560
f 553 554 558 557
f 554 555 559 558
f 555 556 560 559
f 556 553 557 560

o ROOM_03_STARBOARD_AIRLOCK_Floor
usemtl Deck
f 561 562 563 564
f 565 568 567 566
f 561 565 566 562
f 562 566 567 563
f 563 567 568 564
f 565 561 564 568

o ROOM_03_STARBOARD_AIRLOCK_SuitRack
usemtl Fixture
f 569 570 571 572
f 573 576 575 574
f 569 573 574 570
f 570 574 575 571
f 571 575 576 572
f 573 569 572 576

o ROOM_03_STARBOARD_AIRLOCK_Control
usemtl Console
f 577 578 579 580
f 581 584 583 582
f 577 581 582 578
f 578 582 583 579
f 579 583 584 580
f 581 577 580 584

o ROOM_05_CARGO_RAMP_LIFT_Platform
usemtl Metal
f 585 586 587 588
f 589 592 591 590
f 585 589 590 586
f 586 590 591 587
f 587 591 592 588
f 589 585 588 592

o ROOM_05_CARGO_RAMP_LIFT_TrackA
usemtl Metal
f 593 594 595 596
f 597 600 599 598
f 593 597 598 594
f 594 598 599 595
f 595 599 600 596
f 597 593 596 600

o ROOM_05_CARGO_RAMP_LIFT_TrackB
usemtl Metal
f 601 602 603 604
f 605 608 607 606
f 601 605 606 602
f 602 606 607 603
f 603 607 608 604
f 605 601 604 608

o ROOM_06_CARGO_CRANE_Base
usemtl Machinery
f 609 610 611 612
f 613 616 615 614
f 609 613 614 610
f 610 614 615 611
f 611 615 616 612
f 613 609 612 616

o ROOM_06_CARGO_CRANE_Rail
usemtl Metal
f 617 618 619 620
f 621 624 623 622
f 617 621 622 618
f 618 622 623 619
f 619 623 624 620
f 621 617 620 624

o ROOM_06_CARGO_CRANE_Trolley
usemtl Machinery
f 625 626 627 628
f 629 632 631 630
f 625 629 630 626
f 626 630 631 627
f 627 631 632 628
f 629 625 628 632

o ROOM_07_CARGO_CAMP_OpsConsole
usemtl Console
f 633 634 635 636
f 637 640 639 638
f 633 637 638 634
f 634 638 639 635
f 635 639 640 636
f 637 633 636 640

o ROOM_07_CARGO_CAMP_Bench
usemtl Fixture
f 641 642 643 644
f 645 648 647 646
f 641 645 646 642
f 642 646 647 643
f 643 647 648 644
f 645 641 644 648

o STRUCTURE_ServiceLane
usemtl Deck
f 649 650 651 652
f 653 656 655 654
f 649 653 654 650
f 650 654 655 651
f 651 655 656 652
f 653 649 652 656
f 657 658 659 660
f 661 664 663 662
f 657 661 662 658
f 658 662 663 659
f 659 663 664 660
f 661 657 660 664

o STRUCTURE_ForwardPressureBulkhead
usemtl Bulkhead
f 665 668 667 666
f 669 670 671 672
f 665 666 670 669
f 666 667 671 670
f 667 668 672 671
f 668 665 669 672

o STRUCTURE_AftPressureBulkhead
usemtl Bulkhead
f 673 676 675 674
f 677 678 679 680
f 673 674 678 677
f 674 675 679 678
f 675 676 680 679
f 676 673 677 680
